<svg xmlns="http://www.w3.org/2000/svg" width="39.709" height="23.164" viewBox="0 0 39.709 23.164"><defs><style>.a{fill:#2f55d4;}.b{fill:#b8c0d9;}</style></defs><path class="a" d="M7.213,24.373h-5l-.2,1.009a1.24,1.24,0,0,0,1.224,1.473H7.031a4.529,4.529,0,0,1-.066-.827,5.488,5.488,0,0,1,.248-1.655ZM24.884,7.463A1.2,1.2,0,0,0,23.924,7H6.551A1.257,1.257,0,0,0,5.327,8.009l-.116.645H9.033a2.888,2.888,0,0,1,1.473,5.377,2.876,2.876,0,0,1,0,4.964,2.987,2.987,0,0,1,1.175,1.34,5.8,5.8,0,0,1,6.866,5.692,4.529,4.529,0,0,1-.066.827H20.2a1.24,1.24,0,0,0,1.208-.976L25.132,8.506A1.2,1.2,0,0,0,24.884,7.463Z" transform="translate(1.308 -7)"/><path class="a" d="M22.195,10H18.654a1.258,1.258,0,0,0-1.224.976L14.782,23.385a1.245,1.245,0,0,0,1.208,1.506h.893a4.529,4.529,0,0,1-.066-.827,5.791,5.791,0,0,1,11.582,0,2.846,2.846,0,0,1-.033.529,1.082,1.082,0,0,0,.414-.678l1.241-5.791a1.448,1.448,0,0,0,.033-.265A7.866,7.866,0,0,0,22.195,10Z" transform="translate(9.655 -5.036)"/><path class="a" d="M9.032,11.482H3.241A1.241,1.241,0,0,1,3.241,9H9.032a1.241,1.241,0,0,1,0,2.482Z" transform="translate(1.309 -5.691)"/><path class="a" d="M9.686,14.482H2.241a1.241,1.241,0,0,1,0-2.482H9.686a1.241,1.241,0,0,1,0,2.482Z" transform="translate(0.655 -3.727)"/><path class="a" d="M10.341,17.482h-9.1a1.241,1.241,0,0,1,0-2.482h9.1a1.241,1.241,0,0,1,0,2.482Z" transform="translate(0 -1.764)"/><path class="b" d="M21.136,24.273a4.136,4.136,0,1,1,4.136-4.136A4.141,4.141,0,0,1,21.136,24.273Z" transform="translate(11.127 -1.109)"/><path class="b" d="M10.136,24.273a4.136,4.136,0,1,1,4.136-4.136A4.141,4.141,0,0,1,10.136,24.273Z" transform="translate(3.927 -1.109)"/></svg>