<svg id="Group_611" data-name="Group 611" xmlns="http://www.w3.org/2000/svg" width="587.306" height="587.306" viewBox="0 0 587.306 587.306">
  <path id="Path_5169" data-name="Path 5169" d="M823.306,379.653a295.213,295.213,0,0,1-3.88,47.856c-.21,1.307-.436,2.614-.67,3.921C801.944,525.955,739.9,604.846,655.795,644.909c-.4.194-.815.387-1.226.581q-4.925,2.324-9.963,4.469c-.9.379-1.8.758-2.711,1.13a291.253,291.253,0,0,1-56.415,16.917c-.855.169-1.71.323-2.566.476a294.693,294.693,0,0,1-53.043,4.824h-.815c-1.581,0-3.162-.016-4.736-.057-.3,0-.6,0-.9-.016a294.553,294.553,0,0,1-52.793-5.857c-.847-.177-1.694-.355-2.541-.54a290.074,290.074,0,0,1-45.839-13.8c-.912-.347-1.807-.71-2.711-1.081q-5.034-2.021-9.963-4.243c-.411-.186-.823-.371-1.226-.557-86.555-39.312-150.667-119.4-167.8-215.73-.234-1.307-.46-2.614-.67-3.921a296.961,296.961,0,0,1-.032-95.5c.29-1.815.605-3.638.944-5.445a289.557,289.557,0,0,1,9.439-37.465q.605-1.876,1.234-3.751C290.753,169.433,400.462,86,529.653,86,673.7,86,793.529,189.731,818.514,326.562c.339,1.807.653,3.63.944,5.445A295.352,295.352,0,0,1,823.306,379.653Z" transform="translate(-236 -86)" fill="#b8c0d9" opacity="0.14"/>
  <g id="_x34_" transform="translate(71.385 108.366)">
    <g id="Group_609" data-name="Group 609" transform="translate(0 0)">
      <g id="Group_508" data-name="Group 508" transform="translate(114.974 70.785)">
        <g id="Group_506" data-name="Group 506" transform="translate(0 7.288)">
          <path id="Path_3852" data-name="Path 3852" d="M169.867,93.5c2.344,12.5,1.563,26.567-2.344,41.674a164.482,164.482,0,0,1-13.023,33.86l28.13,28.651A134.077,134.077,0,0,0,169.867,93.5Z" transform="translate(79.992 -33.334)" fill="#3db6f3"/>
          <path id="Path_3853" data-name="Path 3853" d="M119.9,178.541l28.651,29.172A133.133,133.133,0,0,0,200.9,177.5l-33.078-33.6A221.248,221.248,0,0,1,119.9,178.541Z" transform="translate(24.473 47.538)" fill="#3db6f3"/>
          <path id="Path_3854" data-name="Path 3854" d="M141.574,121,99.9,161.892l47.4,48.185a200.839,200.839,0,0,0,47.925-34.641Z" transform="translate(-7.619 10.793)" fill="#3db6f3"/>
          <path id="Path_3855" data-name="Path 3855" d="M210.168,90.768c-21.358-19.014-57.822-17.711-95.068.26l46.622,47.4h0l48.446-47.664Z" transform="translate(16.771 -59.773)" fill="#3db6f3"/>
          <path id="Path_3856" data-name="Path 3856" d="M183.246,84.1,134.8,131.764l46.622,47.4C199.915,142.183,201.738,105.718,183.246,84.1Z" transform="translate(48.381 -48.417)" fill="#3db6f3"/>
          <path id="Path_3857" data-name="Path 3857" d="M140.1,169.86h0l33.078,33.6h0a132.487,132.487,0,0,0,30.213-48.967L174.22,124.8A211.9,211.9,0,0,1,140.1,169.86Z" transform="translate(56.886 16.89)" fill="#3db6f3"/>
          <path id="Path_3858" data-name="Path 3858" d="M95.2,117.1l53.915,54.7,39.85-39.329h0L140.781,83.5A230.155,230.155,0,0,0,95.2,117.1Z" transform="translate(-15.161 -49.38)" fill="#3db6f3"/>
          <path id="Path_3859" data-name="Path 3859" d="M171.355,198.226h0a214.126,214.126,0,0,0,34.12-45.06L157.55,104.2,117.7,143.529Z" transform="translate(20.943 -16.164)" fill="#3db6f3"/>
          <path id="Path_3860" data-name="Path 3860" d="M114.039,133.431a217.062,217.062,0,0,1,45.32-33.6L130.187,70.4A132.39,132.39,0,0,0,80.7,99.832h0l33.339,33.6Z" transform="translate(-38.428 -70.4)" fill="#3db6f3"/>
          <path id="Path_3861" data-name="Path 3861" d="M98.155,83.5A135.083,135.083,0,0,0,66.9,135.332L95.551,164.5a214.262,214.262,0,0,1,35.683-47.143Z" transform="translate(-60.571 -49.38)" fill="#72cfff"/>
          <path id="Path_3862" data-name="Path 3862" d="M115.223,98.2A216.029,216.029,0,0,0,79.8,145.6l47.664,48.446h0l41.674-40.892Z" transform="translate(-39.872 -25.792)" fill="#3db6f3"/>
          <path id="Path_3863" data-name="Path 3863" d="M86.489,211.363h0l46.622-45.841h0L87.009,118.9C69.559,154.583,68.256,190.006,86.489,211.363Z" transform="translate(-50.207 7.423)" fill="#72cfff"/>
          <path id="Path_3864" data-name="Path 3864" d="M82.259,207.259c-2.344-12.5-1.563-26.567,2.344-41.674A152.691,152.691,0,0,1,96.324,134.33L68.715,106.2A136.28,136.28,0,0,0,82.259,207.259Z" transform="translate(-64.47 -12.955)" fill="#72cfff"/>
          <path id="Path_3865" data-name="Path 3865" d="M172.824,185.222l-46.1-46.622L80.1,184.441C100.937,202.934,136.359,202.152,172.824,185.222Z" transform="translate(-39.39 39.034)" fill="#72cfff"/>
          <path id="Path_3866" data-name="Path 3866" d="M89.4,171.423A135.178,135.178,0,0,0,190.459,186.53L162.85,158.4a152.345,152.345,0,0,1-31.516,11.2C115.967,173.246,101.9,173.767,89.4,171.423Z" transform="translate(-24.467 70.805)" fill="#72cfff"/>
        </g>
        <g id="Group_507" data-name="Group 507" transform="translate(99.834)">
          <path id="Path_3867" data-name="Path 3867" d="M206.463,87.131c-12.242-2.6-26.567-2.084-41.674,1.3a168.285,168.285,0,0,0-34.12,12.242L102.8,72.025A133.5,133.5,0,0,1,206.463,87.131Z" transform="translate(-102.8 -67.602)" fill="#3db6f3"/>
        </g>
      </g>
      <g id="Group_509" data-name="Group 509" transform="translate(48.895 104.9)">
        <path id="Path_3868" data-name="Path 3868" d="M51.244,127.8l-2.344.26c.521,2.865,1.042,5.73,1.823,8.6l2.344-.521C52.286,133.27,51.765,130.4,51.244,127.8Z" transform="translate(-23.375 -5.123)" fill="#a0d7ef"/>
        <path id="Path_3869" data-name="Path 3869" d="M57.584,146.1,55.5,147.142c1.3,2.344,2.865,4.949,4.167,7.293l2.084-1.042C60.188,150.788,58.886,148.444,57.584,146.1Z" transform="translate(-12.785 24.241)" fill="#a0d7ef"/>
        <path id="Path_3870" data-name="Path 3870" d="M51.226,129.8c-.26-2.865-.781-5.73-.781-8.6H48.1l.781,8.6Z" transform="translate(-24.659 -15.714)" fill="#a0d7ef"/>
        <path id="Path_3871" data-name="Path 3871" d="M58.17,147.953c-1.3-2.6-2.344-5.209-3.386-7.553l-2.084.781c1.042,2.6,2.344,5.209,3.386,7.814Z" transform="translate(-17.277 15.095)" fill="#a0d7ef"/>
        <path id="Path_3872" data-name="Path 3872" d="M49.042,107.9c-.26,2.865-.781,5.73-1.042,8.6l2.344.26.781-8.6Z" transform="translate(-24.819 -37.055)" fill="#a0d7ef"/>
        <path id="Path_3873" data-name="Path 3873" d="M55.349,96.242,53,95.2c-1.042,2.6-1.823,5.209-2.6,7.814l2.344.781A64.306,64.306,0,0,0,55.349,96.242Z" transform="translate(-20.968 -57.433)" fill="#a0d7ef"/>
        <path id="Path_3874" data-name="Path 3874" d="M50.4,134.721c.781,2.865,1.823,5.47,2.6,8.335l2.344-.781c-1.042-2.6-1.823-5.47-2.6-8.074Z" transform="translate(-20.968 5.146)" fill="#a0d7ef"/>
        <path id="Path_3875" data-name="Path 3875" d="M51.244,110.256a73.373,73.373,0,0,1,1.823-8.074l-2.344-.781a78.28,78.28,0,0,0-1.823,8.335Z" transform="translate(-23.375 -47.485)" fill="#a0d7ef"/>
        <path id="Path_3876" data-name="Path 3876" d="M47.8,114.5v8.856h2.344V114.5Z" transform="translate(-25.14 -26.464)" fill="#a0d7ef"/>
        <path id="Path_3877" data-name="Path 3877" d="M58.17,90.542,56.086,89.5c-1.3,2.344-2.344,4.949-3.386,7.293l2.084,1.042C55.826,95.491,56.867,92.886,58.17,90.542Z" transform="translate(-17.277 -66.579)" fill="#a0d7ef"/>
        <path id="Path_3878" data-name="Path 3878" d="M73.732,165.549c-1.823-1.563-3.646-3.386-5.47-4.949L66.7,161.9a52.083,52.083,0,0,0,5.73,4.949Z" transform="translate(5.187 47.508)" fill="#a0d7ef"/>
        <path id="Path_3879" data-name="Path 3879" d="M78.132,168.467c-1.823-1.3-3.907-2.865-5.73-4.167l-1.3,1.563a49.024,49.024,0,0,0,5.991,4.167Z" transform="translate(12.247 53.445)" fill="#a0d7ef"/>
        <path id="Path_3880" data-name="Path 3880" d="M62.6,157.6c1.823,2.084,3.386,3.907,5.209,5.73l1.563-1.3c-1.823-1.823-3.386-3.907-5.209-5.73Z" transform="translate(-1.392 40.608)" fill="#a0d7ef"/>
        <path id="Path_3881" data-name="Path 3881" d="M58.8,152.7c1.563,2.084,3.126,4.428,4.688,6.511l1.823-1.3c-1.563-2.084-3.126-4.167-4.688-6.511Z" transform="translate(-7.489 32.745)" fill="#a0d7ef"/>
        <path id="Path_3882" data-name="Path 3882" d="M81.342,169.9,80.3,171.463a63.629,63.629,0,0,0,6.251,2.6l1.042-1.563C85.509,171.723,83.426,170.681,81.342,169.9Z" transform="translate(27.01 62.43)" fill="#a0d7ef"/>
        <path id="Path_3883" data-name="Path 3883" d="M75.6,168.963c2.084,1.3,4.167,2.344,5.991,3.386l1.042-1.563c-2.084-1.042-3.907-2.344-5.991-3.386Z" transform="translate(19.468 58.419)" fill="#a0d7ef"/>
        <path id="Path_3884" data-name="Path 3884" d="M53.051,82l-2.084-1.3C49.4,83.044,48.1,85.388,46.8,87.732l2.344,1.3C50.186,86.691,51.749,84.346,53.051,82Z" transform="translate(-26.745 -80.7)" fill="#a0d7ef"/>
        <path id="Path_3885" data-name="Path 3885" d="M44.628,99.581l-2.6-.781c-.781,2.865-1.3,5.73-1.823,8.6l2.6.521A78.279,78.279,0,0,1,44.628,99.581Z" transform="translate(-37.335 -51.657)" fill="#a0d7ef"/>
        <path id="Path_3886" data-name="Path 3886" d="M42.946,106.021l-2.6-.521c-.521,2.865-.781,5.991-1.042,8.856l2.6.26C42.165,111.751,42.426,108.886,42.946,106.021Z" transform="translate(-38.779 -40.906)" fill="#a0d7ef"/>
        <path id="Path_3887" data-name="Path 3887" d="M41.7,118.391v-5.73l-2.6-.26v9.116h2.6Z" transform="translate(-39.1 -29.834)" fill="#a0d7ef"/>
        <path id="Path_3888" data-name="Path 3888" d="M66.8,170.663c2.084,1.563,4.167,2.865,6.251,4.167l1.3-1.563c-2.084-1.3-4.167-2.6-6.251-4.167Z" transform="translate(5.347 61.147)" fill="#a0d7ef"/>
        <path id="Path_3889" data-name="Path 3889" d="M57.7,162.763c1.823,1.823,3.646,3.907,5.73,5.73l1.563-1.563c-1.823-1.823-3.646-3.646-5.47-5.73Z" transform="translate(-9.254 48.47)" fill="#a0d7ef"/>
        <path id="Path_3890" data-name="Path 3890" d="M71.6,173.663c2.084,1.3,4.167,2.344,6.251,3.386l1.042-1.563c-2.084-1.042-4.167-2.084-6.251-3.386Z" transform="translate(13.05 65.961)" fill="#a0d7ef"/>
        <path id="Path_3891" data-name="Path 3891" d="M62.1,166.963c2.084,1.823,3.907,3.386,5.991,4.949l1.563-1.563c-2.084-1.563-3.907-3.126-5.991-4.949Z" transform="translate(-2.194 55.21)" fill="#a0d7ef"/>
        <path id="Path_3892" data-name="Path 3892" d="M46.5,146.381c1.3,2.6,2.6,5.209,4.167,7.814l2.084-1.042c-1.3-2.6-2.865-4.949-4.167-7.553Z" transform="translate(-27.226 23.439)" fill="#a0d7ef"/>
        <path id="Path_3893" data-name="Path 3893" d="M49.8,152.5l4.688,7.032,2.084-1.3L51.884,151.2Z" transform="translate(-21.931 32.424)" fill="#a0d7ef"/>
        <path id="Path_3894" data-name="Path 3894" d="M53.6,157.642c1.563,2.084,3.386,4.428,5.209,6.511l1.823-1.3c-1.823-2.084-3.386-4.167-5.209-6.251Z" transform="translate(-15.833 41.089)" fill="#a0d7ef"/>
        <path id="Path_3895" data-name="Path 3895" d="M44,93.953,46.344,95a66.406,66.406,0,0,1,3.386-7.553L47.386,86.4C46.344,88.744,45.042,91.349,44,93.953Z" transform="translate(-31.237 -71.554)" fill="#a0d7ef"/>
        <path id="Path_3896" data-name="Path 3896" d="M41.8,119.4H39.2c.26,3.125.521,5.991.781,9.116h2.6C42.326,125.391,42.065,122.265,41.8,119.4Z" transform="translate(-38.94 -18.602)" fill="#a0d7ef"/>
        <path id="Path_3897" data-name="Path 3897" d="M42.6,126.2l-2.6.26c.521,2.865,1.042,5.991,1.823,8.856l2.6-.26C43.907,132.191,43.126,129.065,42.6,126.2Z" transform="translate(-37.656 -7.691)" fill="#a0d7ef"/>
        <path id="Path_3898" data-name="Path 3898" d="M44.1,132.9l-2.6.521.521,1.563c.781,2.344,1.3,4.688,2.084,7.032l2.344-.521c-.781-2.344-1.563-4.688-2.084-6.772Z" transform="translate(-35.249 3.06)" fill="#a0d7ef"/>
        <path id="Path_3899" data-name="Path 3899" d="M43.8,140.021c1.042,2.865,2.344,5.47,3.386,8.335l2.344-.781c-1.3-2.6-2.344-5.47-3.386-8.074Z" transform="translate(-31.558 13.651)" fill="#a0d7ef"/>
        <path id="Path_3900" data-name="Path 3900" d="M41.8,100.635l2.6.781a73.23,73.23,0,0,1,2.6-8.074L44.665,92.3A52.641,52.641,0,0,0,41.8,100.635Z" transform="translate(-34.768 -62.087)" fill="#a0d7ef"/>
      </g>
      <g id="Group_510" data-name="Group 510" transform="translate(204.65 210.647)">
        <path id="Path_3901" data-name="Path 3901" d="M143.5,165.707l.781,2.344,7.814-3.907-1.042-2.344C148.709,163.1,146.1,164.4,143.5,165.707Z" transform="translate(-27.335 -56.314)" fill="#bee1f4"/>
        <path id="Path_3902" data-name="Path 3902" d="M159.3,155.77l1.563,1.823,5.73-5.73L165.03,150.3C162.946,152.123,161.123,153.946,159.3,155.77Z" transform="translate(-1.982 -74.767)" fill="#bee1f4"/>
        <path id="Path_3903" data-name="Path 3903" d="M145.474,164.6a73.624,73.624,0,0,1-8.074,2.865l.521,2.344c2.6-1.042,5.47-1.823,8.074-3.126Z" transform="translate(-37.123 -51.821)" fill="#bee1f4"/>
        <path id="Path_3904" data-name="Path 3904" d="M160.851,154.5c-2.084,1.823-4.167,3.646-6.251,5.209l1.3,2.084c2.084-1.823,4.428-3.386,6.512-5.209Z" transform="translate(-9.524 -68.027)" fill="#bee1f4"/>
        <path id="Path_3905" data-name="Path 3905" d="M124.96,171.746c2.865-.26,5.73-.781,8.335-1.042l-.26-2.6c-2.865.521-5.47.781-8.335,1.042Z" transform="translate(-57.501 -46.205)" fill="#bee1f4"/>
        <path id="Path_3906" data-name="Path 3906" d="M112.621,168.5l-.521,2.344c2.6.26,5.47.521,8.074.781l.26-2.6C117.83,169.021,115.226,168.76,112.621,168.5Z" transform="translate(-77.719 -45.563)" fill="#bee1f4"/>
        <path id="Path_3907" data-name="Path 3907" d="M150.5,165.172c2.344-1.563,4.949-3.125,7.032-4.688l-1.3-2.084-7.032,4.688Z" transform="translate(-18.189 -61.769)" fill="#bee1f4"/>
        <path id="Path_3908" data-name="Path 3908" d="M126.9,168.8c-2.865.26-5.47.26-8.335.26l-.26,2.6c2.865,0,5.47,0,8.335-.26Z" transform="translate(-67.771 -45.081)" fill="#bee1f4"/>
        <path id="Path_3909" data-name="Path 3909" d="M131.621,171.128c1.563-.26,2.865-.781,4.428-1.042,1.3-.26,2.6-.781,3.907-1.042l-.521-2.344c-1.3.26-2.6.781-3.907,1.042-1.563.26-2.865.781-4.428,1.042Z" transform="translate(-47.232 -48.451)" fill="#bee1f4"/>
        <path id="Path_3910" data-name="Path 3910" d="M106.881,167.4l-.781,2.344c2.6.521,5.209,1.3,7.553,1.563l.521-2.344C111.83,168.442,109.226,167.921,106.881,167.4Z" transform="translate(-87.347 -47.328)" fill="#bee1f4"/>
        <path id="Path_3911" data-name="Path 3911" d="M173.026,135.9c-1.042,2.084-2.084,4.167-3.126,6.511l1.823,1.042c1.042-2.084,2.084-4.428,3.126-6.512Z" transform="translate(15.027 -97.873)" fill="#bee1f4"/>
        <path id="Path_3912" data-name="Path 3912" d="M174.444,131c-.781,2.084-1.563,4.167-2.344,6.512l1.823,1.042c.781-2.084,1.563-4.428,2.344-6.512Z" transform="translate(18.557 -105.735)" fill="#bee1f4"/>
        <path id="Path_3913" data-name="Path 3913" d="M168.723,148.614a53.848,53.848,0,0,0,3.907-6.512l-1.823-1.3-3.907,6.251Z" transform="translate(10.213 -90.01)" fill="#bee1f4"/>
        <path id="Path_3914" data-name="Path 3914" d="M164.8,153.414c1.563-2.084,3.386-4.167,4.949-6.251l-1.563-1.563c-1.563,2.084-3.126,4.167-4.688,5.991Z" transform="translate(4.757 -82.308)" fill="#bee1f4"/>
        <path id="Path_3915" data-name="Path 3915" d="M174.7,127.551l1.823.521.781-6.251-1.823-.521A22.791,22.791,0,0,1,174.7,127.551Z" transform="translate(22.729 -121.3)" fill="#bee1f4"/>
        <path id="Path_3916" data-name="Path 3916" d="M175.523,133.132c.521-2.084,1.042-4.167,1.563-6.512l-1.823-.521-1.563,6.251Z" transform="translate(21.124 -113.598)" fill="#bee1f4"/>
        <path id="Path_3917" data-name="Path 3917" d="M99.681,175.1l-.781,2.6c2.6,1.042,4.949,1.823,7.553,2.6l.781-2.6A64.32,64.32,0,0,1,99.681,175.1Z" transform="translate(-98.9 -34.972)" fill="#bee1f4"/>
        <path id="Path_3918" data-name="Path 3918" d="M117.96,178.461l-.26,2.865c2.865,0,5.73,0,8.856-.26V178.2C123.691,178.461,120.565,178.461,117.96,178.461Z" transform="translate(-68.733 -29.998)" fill="#bee1f4"/>
        <path id="Path_3919" data-name="Path 3919" d="M124.4,178.7v2.865c2.865-.26,5.991-.781,8.856-1.3L133,177.4A84.97,84.97,0,0,1,124.4,178.7Z" transform="translate(-57.983 -31.282)" fill="#bee1f4"/>
        <path id="Path_3920" data-name="Path 3920" d="M136.57,176.621c-1.823.521-3.646.781-5.47,1.3l.26,2.865c1.823-.521,3.646-.781,5.73-1.3l3.126-.781-.521-2.6A19.236,19.236,0,0,0,136.57,176.621Z" transform="translate(-47.232 -33.368)" fill="#bee1f4"/>
        <path id="Path_3921" data-name="Path 3921" d="M179.623,141.353a67.244,67.244,0,0,0,2.084-6.772l-1.823-.781a67.264,67.264,0,0,1-2.084,6.772Z" transform="translate(27.703 -101.242)" fill="#bee1f4"/>
        <path id="Path_3922" data-name="Path 3922" d="M174.823,152.174c1.3-2.344,2.6-4.428,3.646-6.772l-1.823-1.3c-1.3,2.344-2.344,4.428-3.646,6.772Z" transform="translate(20.001 -84.715)" fill="#bee1f4"/>
        <path id="Path_3923" data-name="Path 3923" d="M181.123,136.153a62.034,62.034,0,0,0,1.3-6.772L180.6,128.6a57.588,57.588,0,0,1-1.3,6.512Z" transform="translate(30.11 -109.586)" fill="#bee1f4"/>
        <path id="Path_3924" data-name="Path 3924" d="M177.523,146.814c1.042-2.344,2.084-4.688,2.865-6.772L178.565,139c-.781,2.344-1.823,4.428-2.865,6.772Z" transform="translate(24.333 -92.899)" fill="#bee1f4"/>
        <path id="Path_3925" data-name="Path 3925" d="M162.663,166.914c2.084-1.823,4.167-3.907,6.251-5.991l-1.563-1.823c-2.084,2.084-4.167,3.907-6.251,5.991Z" transform="translate(0.906 -60.646)" fill="#bee1f4"/>
        <path id="Path_3926" data-name="Path 3926" d="M167.423,162.535c1.823-2.084,3.646-4.167,5.47-6.512L171.07,154.2l-5.47,6.251Z" transform="translate(8.127 -68.509)" fill="#bee1f4"/>
        <path id="Path_3927" data-name="Path 3927" d="M171.363,157.535c1.563-2.084,3.126-4.428,4.688-6.772l-1.823-1.563c-1.563,2.344-2.865,4.428-4.428,6.512Z" transform="translate(14.866 -76.532)" fill="#bee1f4"/>
        <path id="Path_3928" data-name="Path 3928" d="M113.035,181.067l.521-2.6c-2.6-.521-5.47-1.042-8.074-1.563l-.781,2.6C107.565,180.026,110.17,180.546,113.035,181.067Z" transform="translate(-89.593 -32.084)" fill="#bee1f4"/>
        <path id="Path_3929" data-name="Path 3929" d="M137.8,176.926l.521,2.6,8.6-3.126-.781-2.6C143.27,174.842,140.4,175.884,137.8,176.926Z" transform="translate(-36.481 -37.058)" fill="#bee1f4"/>
        <path id="Path_3930" data-name="Path 3930" d="M144.2,174.907l.781,2.6c2.865-1.3,5.47-2.6,8.074-3.907l-1.042-2.6C149.67,172.3,146.8,173.6,144.2,174.907Z" transform="translate(-26.212 -41.551)" fill="#bee1f4"/>
        <path id="Path_3931" data-name="Path 3931" d="M150.3,172.188l1.042,2.344,1.563-.781,6.251-3.907-1.3-2.344c-2.084,1.3-3.907,2.6-5.991,3.907Z" transform="translate(-16.423 -47.167)" fill="#bee1f4"/>
        <path id="Path_3932" data-name="Path 3932" d="M157.142,171.053l7.032-5.47-1.3-2.084c-2.344,1.823-4.428,3.646-6.772,5.47Z" transform="translate(-7.117 -53.586)" fill="#bee1f4"/>
        <path id="Path_3933" data-name="Path 3933" d="M119.7,181.546l.26-2.865c-2.865-.26-5.73-.521-8.335-.781l-.521,2.865Z" transform="translate(-79.324 -30.48)" fill="#bee1f4"/>
      </g>
      <g id="Group_564" data-name="Group 564" transform="translate(114.792 91.356)">
        <path id="Path_4974" data-name="Path 4974" d="M134.046,151.5a69.313,69.313,0,0,1-6.251,5.991c7.814.26,28.13-3.386,46.883-11.46,19.014-7.553,36.985-19.535,43.757-25.525-.26-.26-6.512,8.856-22.66,19.535-15.888,10.679-41.674,23.181-72.408,26.046a46.958,46.958,0,0,0,2.084,5.47c-13.283-2.6-22.66-8.074-28.651-14.325A103.428,103.428,0,0,0,134.046,151.5Z" transform="translate(-12.411 -3.296)" fill="#074b68"/>
        <path id="Path_4975" data-name="Path 4975" d="M88.623,126.751a33.209,33.209,0,0,1-6.512-3.907c-1.823,6.251-.521,21.358,6.772,34.9,6.512,13.8,19.014,25.786,25.786,29.692.26-.26-10.418-3.386-21.618-14.325-11.2-10.418-23.181-28.651-21.1-52.353a64.309,64.309,0,0,0-7.553,2.6c5.73-10.939,14.586-19.274,23.962-25.265A38.662,38.662,0,0,0,88.623,126.751Z" transform="translate(-64.4 -39.236)" fill="#074b68"/>
        <path id="Path_4976" data-name="Path 4976" d="M164.349,136.187a33.21,33.21,0,0,1,6.512,3.907c1.823-6.251.521-21.358-6.772-34.9-6.512-13.8-19.014-25.786-25.786-29.692-.26.26,10.418,3.386,21.618,14.325,11.2,10.418,23.181,28.651,21.1,52.353a64.309,64.309,0,0,0,7.553-2.6c-5.73,10.939-14.586,19.274-23.962,25.265C168.516,154.159,167.735,144.262,164.349,136.187Z" transform="translate(54.177 -75.5)" fill="#074b68"/>
      </g>
      <g id="Group_565" data-name="Group 565" transform="translate(227.31 49.162)">
        <path id="Path_4977" data-name="Path 4977" d="M127.135,101.855a22.789,22.789,0,0,1,22.921-22.921V59.4A42.462,42.462,0,0,0,107.6,101.855c0,28.911,42.455,86.212,42.455,86.212V125.036A23.011,23.011,0,0,1,127.135,101.855Z" transform="translate(-107.6 -59.14)" fill="#f9773d"/>
        <path id="Path_4978" data-name="Path 4978" d="M144.737,83.151A22.663,22.663,0,0,1,123.9,96.695v63.292s39.85-51.571,42.455-83.087a33.379,33.379,0,0,0-7.032,1.3A80.316,80.316,0,0,0,144.737,83.151Z" transform="translate(-81.445 -31.059)" fill="#ea5f21"/>
        <path id="Path_4979" data-name="Path 4979" d="M145.939,95.764a67.488,67.488,0,0,1,20.316,3.126A42.647,42.647,0,0,0,123.8,59.3V78.835A23.585,23.585,0,0,1,145.939,95.764Z" transform="translate(-81.605 -59.3)" fill="#ea5f21"/>
        <path id="Path_4980" data-name="Path 4980" d="M153.518,76.526A67.487,67.487,0,0,0,133.2,73.4a25.689,25.689,0,0,1,.781,6.251,22.469,22.469,0,0,1-2.084,9.377,74.084,74.084,0,0,1,14.586-4.949,66.623,66.623,0,0,1,7.032-1.3c0-1.042.26-2.084.26-3.126A12.68,12.68,0,0,1,153.518,76.526Z" transform="translate(-68.608 -36.675)" fill="#ea5f21"/>
      </g>
      <g id="Group_573" data-name="Group 573" transform="translate(349.466 188.248)">
        <g id="Group_569" data-name="Group 569">
          <path id="Path_4981" data-name="Path 4981" d="M172.36,163.29h43.757a4.39,4.39,0,0,0,4.428-4.428V134.9H172.1v28.39Z" transform="translate(-126.259 -77.078)" fill="#eabe32"/>
          <rect id="Rectangle_2151" data-name="Rectangle 2151" width="48.446" height="1.823" transform="translate(46.101 51.832)" fill="#eabe32"/>
          <rect id="Rectangle_2152" data-name="Rectangle 2152" height="4.167" transform="translate(94.547 53.394)" fill="#bce2e8"/>
          <rect id="Rectangle_2153" data-name="Rectangle 2153" width="45.841" height="4.167" transform="translate(0.261 53.394)" fill="#d2f3f8"/>
          <rect id="Rectangle_2154" data-name="Rectangle 2154" width="48.446" height="4.167" transform="translate(46.101 53.394)" fill="#bce2e8"/>
          <rect id="Rectangle_2155" data-name="Rectangle 2155" height="4.167" transform="translate(94.547 47.404)" fill="#bce2e8"/>
          <rect id="Rectangle_2156" data-name="Rectangle 2156" width="48.446" height="4.167" transform="translate(46.101 47.404)" fill="#bce2e8"/>
          <rect id="Rectangle_2157" data-name="Rectangle 2157" width="45.841" height="4.167" transform="translate(0.261 47.404)" fill="#d2f3f8"/>
          <path id="Path_4982" data-name="Path 4982" d="M154.6,115.9l.26.26h0Z" transform="translate(-154.34 -107.565)" fill="#58a39a"/>
          <path id="Path_4983" data-name="Path 4983" d="M190.6,116.16l.26-.26Z" transform="translate(-96.574 -107.565)" fill="#4a938a"/>
          <rect id="Rectangle_2158" data-name="Rectangle 2158" width="48.446" height="38.809" transform="translate(46.101 8.595)" fill="#eabe32"/>
          <path id="Path_4984" data-name="Path 4984" d="M154.5,116v73.189a4.39,4.39,0,0,0,4.428,4.428h41.413V164.967H154.5V160.8h45.841v-1.823H154.5v-4.167h45.841V116Z" transform="translate(-154.5 -107.405)" fill="#e8ca4d"/>
          <path id="Path_4985" data-name="Path 4985" d="M220.125,119.993H172.2V112.7h38.548Z" transform="translate(-126.099 -112.7)" fill="#eabe32"/>
          <path id="Path_4986" data-name="Path 4986" d="M200.281,112.7v7.293H154.7l9.377-7.293Z" transform="translate(-154.179 -112.7)" fill="#e8ca4d"/>
          <g id="Group_567" data-name="Group 567" transform="translate(57.041 64.073)">
            <path id="Path_4987" data-name="Path 4987" d="M176.4,137.3v15.367h26.046V137.3Zm1.563,14.065h-.781V138.6h.781Zm1.042,0h-1.042V138.6h.781v12.763Zm3.126,0h-1.563V138.6h1.563Zm1.823,0h-.781V138.6h.781Zm1.563,0h-.781V138.6h.781Zm2.865,0h-1.823V138.6h1.823Zm1.563,0h-.781V138.6h.781Zm2.084,0h-1.042V138.6h.781v12.763Zm1.042,0h-.781V138.6h.781Zm1.823,0h-.781V138.6h.781Zm1.042,0h-.781V138.6h.781Zm1.042,0H196.2V138.6h.781Zm2.344,0h-.781V138.6h.781Zm1.042,0h-.781V138.6h.781Zm1.563,0h-.781V138.6h.781Z" transform="translate(-176.4 -137.3)" fill="#dde5ed"/>
            <g id="Group_566" data-name="Group 566" transform="translate(0.781 1.042)">
              <rect id="Rectangle_2159" data-name="Rectangle 2159" width="0.781" height="12.763" fill="#545057"/>
              <rect id="Rectangle_2160" data-name="Rectangle 2160" width="0.781" height="12.763" transform="translate(0.781)" fill="#545057"/>
              <rect id="Rectangle_2161" data-name="Rectangle 2161" width="1.563" height="12.763" transform="translate(3.386)" fill="#545057"/>
              <rect id="Rectangle_2162" data-name="Rectangle 2162" width="0.781" height="12.763" transform="translate(5.991)" fill="#545057"/>
              <rect id="Rectangle_2163" data-name="Rectangle 2163" width="0.781" height="12.763" transform="translate(7.293)" fill="#545057"/>
              <rect id="Rectangle_2164" data-name="Rectangle 2164" width="1.823" height="12.763" transform="translate(9.637)" fill="#545057"/>
              <rect id="Rectangle_2165" data-name="Rectangle 2165" width="0.781" height="12.763" transform="translate(11.981)" fill="#545057"/>
              <rect id="Rectangle_2166" data-name="Rectangle 2166" width="0.781" height="12.763" transform="translate(13.804)" fill="#545057"/>
              <rect id="Rectangle_2167" data-name="Rectangle 2167" width="0.781" height="12.763" transform="translate(14.846)" fill="#545057"/>
              <rect id="Rectangle_2168" data-name="Rectangle 2168" width="0.781" height="12.763" transform="translate(16.93)" fill="#545057"/>
              <rect id="Rectangle_2169" data-name="Rectangle 2169" width="0.781" height="12.763" transform="translate(17.972)" fill="#545057"/>
              <rect id="Rectangle_2170" data-name="Rectangle 2170" width="0.781" height="12.763" transform="translate(18.753)" fill="#545057"/>
              <rect id="Rectangle_2171" data-name="Rectangle 2171" width="0.781" height="12.763" transform="translate(21.097)" fill="#545057"/>
              <rect id="Rectangle_2172" data-name="Rectangle 2172" width="0.781" height="12.763" transform="translate(22.4)" fill="#545057"/>
              <rect id="Rectangle_2173" data-name="Rectangle 2173" width="0.781" height="12.763" transform="translate(23.962)" fill="#545057"/>
            </g>
          </g>
          <g id="Group_568" data-name="Group 568" transform="translate(51.05 23.116)">
            <path id="Path_4988" data-name="Path 4988" d="M187.646,127.77v5.991c-1.823.26-3.125.781-3.386,1.563H192.6c-.261-.781-1.563-1.3-3.386-1.563V127.77c2.084-.521,3.386-2.6,3.386-5.209v-.26H184v.26C184.261,125.165,185.563,127.249,187.646,127.77Z" transform="translate(-158.215 -120.412)" fill="#ea5f21"/>
            <path id="Path_4989" data-name="Path 4989" d="M181.944,127.549c.26,0,.521-.26,1.042-.26.781,0,1.563,0,1.823.26V133.8a1.914,1.914,0,0,1-.521,1.563,1.494,1.494,0,0,1-1.823.521c-.26-.26-.521-.521-.521-.781a.582.582,0,0,0-1.042-.521c-.521.521-.26,1.042.26,1.563.26.26.781.521,1.042.781h.781a3.3,3.3,0,0,0,2.344-1.042c.781-.781.521-2.084.521-3.126v-5.209a11.281,11.281,0,0,1,1.3-.26,11.283,11.283,0,0,1,1.3.26c.26,0,.521-.26,1.042-.26s.781.26,1.042.26a5.528,5.528,0,0,0-4.688-4.428c-.26-.26-.521-.521-.781-.521s-.521.26-.781.521a5.258,5.258,0,0,0-4.688,4.428c.261,0,.521-.26,1.042-.26A1.952,1.952,0,0,1,181.944,127.549Z" transform="translate(-165.275 -119.93)" fill="#ea5f21"/>
            <path id="Path_4990" data-name="Path 4990" d="M181.141,123.342h0c.781,0,.781-1.042.261-1.042h-.261C180.62,122.3,180.62,123.342,181.141,123.342Z" transform="translate(-163.429 -120.412)" fill="#ea5f21"/>
            <path id="Path_4991" data-name="Path 4991" d="M181.961,122.742c.521,0,.521-1.042,0-1.042C181.18,121.961,181.18,122.742,181.961,122.742Z" transform="translate(-162.427 -121.374)" fill="#ea5f21"/>
            <path id="Path_4992" data-name="Path 4992" d="M182.942,122.861h0a.525.525,0,1,0-1.042,0h0C182.16,123.382,182.942,123.382,182.942,122.861Z" transform="translate(-161.584 -120.452)" fill="#ea5f21"/>
            <path id="Path_4993" data-name="Path 4993" d="M183.342,122.161h0a.525.525,0,1,0-1.042,0h0C182.56,122.682,183.342,122.682,183.342,122.161Z" transform="translate(-160.942 -121.575)" fill="#ea5f21"/>
            <path id="Path_4994" data-name="Path 4994" d="M183.661,123.142c.521,0,.521-1.042,0-1.042A.525.525,0,1,0,183.661,123.142Z" transform="translate(-159.699 -120.733)" fill="#ea5f21"/>
            <path id="Path_4995" data-name="Path 4995" d="M177.121,125.946h.26c.26,0,.26,0,.521-.26l1.042-1.3v9.9a.521.521,0,1,0,1.042,0V124.123l1.3,1.563a.488.488,0,0,0,.781,0c.26-.26.26-.521,0-.521l-2.344-2.6a.909.909,0,0,0-.521-.26c-.26,0-.26,0-.521.26l-2.084,2.6C176.861,125.686,176.861,125.946,177.121,125.946Z" transform="translate(-170.089 -120.412)" fill="#ea5f21"/>
            <path id="Path_4996" data-name="Path 4996" d="M174.621,125.946h.26c.26,0,.26,0,.521-.26l1.042-1.3v9.9a.521.521,0,1,0,1.042,0V124.123l1.3,1.563a.488.488,0,0,0,.781,0c.26-.26.26-.521,0-.521l-2.344-2.6a.91.91,0,0,0-.521-.26c-.261,0-.261,0-.521.26l-2.084,2.6C174.36,125.686,174.36,125.946,174.621,125.946Z" transform="translate(-174.1 -120.412)" fill="#ea5f21"/>
            <path id="Path_4997" data-name="Path 4997" d="M184.658,127.4h-9.637a.521.521,0,1,0,0,1.042h9.637a.56.56,0,0,0,.521-.521C185.179,127.4,184.918,127.4,184.658,127.4Z" transform="translate(-173.458 -112.228)" fill="#ea5f21"/>
          </g>
        </g>
        <g id="Group_570" data-name="Group 570" transform="translate(42.195)">
          <rect id="Rectangle_2174" data-name="Rectangle 2174" width="3.907" height="7.293" fill="#d2f3f8"/>
          <path id="Path_4998" data-name="Path 4998" d="M176.107,112.7H172.2v7.293h3.907Z" transform="translate(-168.293 -112.7)" fill="#bce2e8"/>
          <path id="Path_4999" data-name="Path 4999" d="M170.7,116v6.251l1.042-1.3,1.563,1.3,1.3-1.563V116Z" transform="translate(-170.7 -107.405)" fill="#d2f3f8"/>
          <path id="Path_5000" data-name="Path 5000" d="M172.2,116v4.688l1.3,2.344,1.823-1.042,1.3,1.042V116Z" transform="translate(-168.293 -107.405)" fill="#bce2e8"/>
        </g>
        <g id="Group_571" data-name="Group 571" transform="translate(0 66.938)">
          <path id="Path_5001" data-name="Path 5001" d="M154.5,138.4v6.512h4.167V138.4Z" transform="translate(-154.5 -138.4)" fill="#d2f3f8"/>
          <path id="Path_5002" data-name="Path 5002" d="M160.267,141.786l1.042-1.042-.781-1.3.26-1.042H156.1v6.512h4.167l-.781-.781,1.823-1.3Z" transform="translate(-151.933 -138.4)" fill="#bce2e8"/>
        </g>
        <g id="Group_572" data-name="Group 572" transform="translate(10.939 23.441)">
          <rect id="Rectangle_2175" data-name="Rectangle 2175" width="26.827" height="0.781" fill="#545057"/>
          <rect id="Rectangle_2176" data-name="Rectangle 2176" width="26.827" height="0.781" transform="translate(0 2.605)" fill="#545057"/>
          <rect id="Rectangle_2177" data-name="Rectangle 2177" width="26.827" height="0.781" transform="translate(0 5.47)" fill="#545057"/>
          <rect id="Rectangle_2178" data-name="Rectangle 2178" width="26.827" height="0.781" transform="translate(0 8.074)" fill="#545057"/>
          <rect id="Rectangle_2179" data-name="Rectangle 2179" width="26.827" height="0.781" transform="translate(0 10.939)" fill="#545057"/>
        </g>
      </g>
      <g id="_x31_4_4_" transform="translate(221.084 246.108)">
        <g id="Group_591" data-name="Group 591" transform="translate(0)">
          <g id="Group_580" data-name="Group 580">
            <g id="Group_577" data-name="Group 577">
              <g id="Group_574" data-name="Group 574" transform="translate(4.619 4.283)">
                <path id="Path_5003" data-name="Path 5003" d="M212.514,168.442l-10.939-5.991a2.868,2.868,0,0,1-3.907.781l-29.432-16.149a2.736,2.736,0,0,1-1.3-3.646l-10.939-5.991c-3.386-1.823-7.553-.781-9.116,2.6l-39.069,71.627a6.681,6.681,0,0,0,2.865,9.116l56.78,30.995c3.386,1.823,7.553.781,9.116-2.344l39.069-71.627A7.816,7.816,0,0,0,212.514,168.442Z" transform="translate(-106.983 -136.559)" fill="#e4f4ff"/>
              </g>
              <g id="Group_575" data-name="Group 575">
                <path id="Path_5004" data-name="Path 5004" d="M217.443,167.173,206.5,161.183v.261l-1.823,3.386a.255.255,0,0,1-.261.26l10.939,5.991a6.681,6.681,0,0,1,2.865,9.116l-39.069,71.627a6.669,6.669,0,0,1-9.116,2.344l-56.78-30.474a6.681,6.681,0,0,1-2.865-9.116l39.069-71.627a6.993,6.993,0,0,1,9.116-2.6l10.939,5.991a.255.255,0,0,1,.26-.26l1.823-3.386a.255.255,0,0,1,.26-.26l-10.939-5.991a11.1,11.1,0,0,0-15.367,4.167l-39.069,71.627c-2.865,5.209-.781,11.981,4.949,15.107l56.78,30.995a11.1,11.1,0,0,0,15.367-4.167l39.069-71.627A12.292,12.292,0,0,0,217.443,167.173Z" transform="translate(-105.21 -134.915)" fill="#4d4d4d"/>
              </g>
              <g id="Group_576" data-name="Group 576" transform="translate(63.588 4.543)">
                <path id="Path_5005" data-name="Path 5005" d="M165.767,154.738l-2.6-1.563.781-1.563a3.167,3.167,0,0,0-1.3-4.167l-19.014-10.418a3.192,3.192,0,0,0-4.167,1.042l-.781,1.563-2.6-1.563a3.152,3.152,0,0,0-3.907.781l-.26.26-1.823,3.386a.255.255,0,0,1-.26.26,3,3,0,0,0,1.3,3.646l29.432,16.148a3.152,3.152,0,0,0,3.907-.781l.261-.26,1.823-3.386v-.26C167.85,157.082,167.329,155.519,165.767,154.738Z" transform="translate(-129.623 -136.659)" fill="#4d4d4d"/>
              </g>
            </g>
            <g id="Group_578" data-name="Group 578" transform="translate(66.662 9.087)">
              <path id="Path_5006" data-name="Path 5006" d="M161.789,153.5l-27.348-14.846a2.562,2.562,0,0,0-3.386,1.042h0a2.562,2.562,0,0,0,1.042,3.386l27.348,14.846a2.562,2.562,0,0,0,3.386-1.042h0A2.744,2.744,0,0,0,161.789,153.5Z" transform="translate(-130.803 -138.403)" fill="#d0d5d8"/>
            </g>
            <g id="Group_579" data-name="Group 579" transform="translate(75.509 6.473)">
              <path id="Path_5007" data-name="Path 5007" d="M154.255,147.037,136.8,137.66a1.589,1.589,0,0,0-2.344.781h0a1.589,1.589,0,0,0,.781,2.344l17.451,9.377a1.589,1.589,0,0,0,2.344-.781h0A2.1,2.1,0,0,0,154.255,147.037Z" transform="translate(-134.2 -137.4)" fill="#d0d5d8"/>
            </g>
          </g>
          <g id="Group_590" data-name="Group 590" transform="translate(19.77 23.924)">
            <g id="Group_582" data-name="Group 582" transform="translate(19.795 1.302)">
              <path id="Path_5008" data-name="Path 5008" d="M162.546,169.856l-34.12-18.493a1.253,1.253,0,0,0-1.563.521h0a1.253,1.253,0,0,0,.521,1.563l34.12,18.493a1.253,1.253,0,0,0,1.563-.521h0A1.253,1.253,0,0,0,162.546,169.856Z" transform="translate(-110.194 -133.912)" fill="#1893d1"/>
              <g id="Group_581" data-name="Group 581">
                <path id="Path_5009" data-name="Path 5009" d="M120.4,155.539l11.2,5.991,5.991-10.939-11.2-5.991Zm6.511-8.856,8.335,4.688-4.428,8.074-8.335-4.688Z" transform="translate(-120.4 -144.6)" fill="#455256"/>
              </g>
            </g>
            <g id="Group_584" data-name="Group 584" transform="translate(9.897 19.535)">
              <path id="Path_5010" data-name="Path 5010" d="M158.746,176.856l-34.12-18.493a1.253,1.253,0,0,0-1.563.521h0a1.253,1.253,0,0,0,.521,1.563l34.12,18.493a1.253,1.253,0,0,0,1.563-.521h0A1.253,1.253,0,0,0,158.746,176.856Z" transform="translate(-106.394 -140.912)" fill="#1893d1"/>
              <g id="Group_583" data-name="Group 583">
                <path id="Path_5011" data-name="Path 5011" d="M116.6,162.539l11.2,5.991,5.991-10.939-11.2-5.991Zm6.512-8.856,8.335,4.688-4.428,8.074-8.335-4.688Z" transform="translate(-116.6 -151.6)" fill="#455256"/>
              </g>
            </g>
            <g id="Group_586" data-name="Group 586" transform="translate(0 37.506)">
              <path id="Path_5012" data-name="Path 5012" d="M154.946,183.756l-34.12-18.493a1.253,1.253,0,0,0-1.563.521h0a1.253,1.253,0,0,0,.521,1.563l34.12,18.493a1.253,1.253,0,0,0,1.563-.521h0C155.727,185.058,155.727,184.277,154.946,183.756Z" transform="translate(-102.594 -147.812)" fill="#1893d1"/>
              <g id="Group_585" data-name="Group 585">
                <path id="Path_5013" data-name="Path 5013" d="M112.8,169.439,124,175.43l5.991-10.939-11.2-5.991Zm6.511-8.6,8.335,4.688-4.428,8.074-8.335-4.688Z" transform="translate(-112.8 -158.5)" fill="#455256"/>
              </g>
            </g>
            <g id="Group_587" data-name="Group 587" transform="translate(5.209 35.162)">
              <path id="Path_5014" data-name="Path 5014" d="M130.688,159.944a1.259,1.259,0,0,0-1.823,0l-11.46,9.9.26-10.939a1.3,1.3,0,1,0-2.6,0l-.26,13.8c0,.521.26,1.042.781,1.042h0c.521.261,1.042.261,1.3-.26l13.544-11.721A1.6,1.6,0,0,0,130.688,159.944Z" transform="translate(-114.8 -157.6)" fill="#ea5f21"/>
            </g>
            <g id="Group_588" data-name="Group 588" transform="translate(13.283 20.316)">
              <path id="Path_5015" data-name="Path 5015" d="M133.788,154.244a1.259,1.259,0,0,0-1.823,0l-11.46,9.9.26-10.939a1.3,1.3,0,1,0-2.6,0l-.26,13.8c0,.521.26,1.042.781,1.042h0c.521.26,1.042.26,1.3-.261l13.544-11.721A1.6,1.6,0,0,0,133.788,154.244Z" transform="translate(-117.9 -151.9)" fill="#ea5f21"/>
            </g>
            <g id="Group_589" data-name="Group 589" transform="translate(24.223)">
              <path id="Path_5016" data-name="Path 5016" d="M137.988,146.444a1.259,1.259,0,0,0-1.823,0l-11.46,9.9.26-10.939a1.3,1.3,0,1,0-2.6,0l-.26,13.8c0,.521.26,1.042.781,1.042h0c.521.26,1.042.26,1.3-.261l13.544-11.721A1.116,1.116,0,0,0,137.988,146.444Z" transform="translate(-122.1 -144.1)" fill="#ea5f21"/>
            </g>
          </g>
        </g>
        <g id="Group_592" data-name="Group 592" transform="translate(39.305 24.251)">
          <path id="Path_5017" data-name="Path 5017" d="M162.374,148.066,160.03,145.2a2.5,2.5,0,0,0-3.386-.521l-2.344,2.084,4.167,4.949Z" transform="translate(-65.744 -144.226)" fill="#4db5ea"/>
          <path id="Path_5018" data-name="Path 5018" d="M161.951,151.691c1.042-.781,1.042-2.344,0-3.646l-2.084-2.344-4.167,3.646,3.646,4.428Z" transform="translate(-63.497 -141.86)" fill="#1893d1"/>
          <path id="Path_5019" data-name="Path 5019" d="M124.221,170.6l-.521.26.26.26Z" transform="translate(-114.844 -101.905)" fill="#ea5f21"/>
          <path id="Path_5020" data-name="Path 5020" d="M126.46,174.8l-.26.26h0Z" transform="translate(-110.833 -95.166)" fill="#f9773d"/>
          <path id="Path_5021" data-name="Path 5021" d="M197.089,156.458l6.251-5.209-4.167-4.949-4.167,3.646L123.9,209.592l3.386,5.73Z" transform="translate(-114.523 -140.897)" fill="#4db5ea"/>
          <path id="Path_5022" data-name="Path 5022" d="M200.473,156.535l4.428-3.646-3.646-4.688L195,153.409l-69.8,58.864,2.865,5.209Z" transform="translate(-112.437 -137.848)" fill="#1893d1"/>
          <path id="Path_5023" data-name="Path 5023" d="M160.651,152.049l.781-.521-3.646-4.428-.521.521-2.865,2.344,3.646,4.688Z" transform="translate(-65.583 -139.613)" fill="#e4f4ff"/>
          <path id="Path_5024" data-name="Path 5024" d="M159.832,150.67l.521-.521-3.907-4.949-.781.521-2.865,2.344,4.167,4.949Z" transform="translate(-68.15 -142.662)" fill="#dde5ed"/>
          <path id="Path_5025" data-name="Path 5025" d="M128.374,176.707l-2.084-3.907L120.3,183.218l1.042-.521Z" transform="translate(-120.3 -98.375)" fill="#a4b5bc"/>
          <path id="Path_5026" data-name="Path 5026" d="M127.732,174.3l-7.032,5.991,9.116-2.865Z" transform="translate(-119.658 -95.968)" fill="#58595b"/>
          <path id="Path_5027" data-name="Path 5027" d="M128.851,176.851l.521-.521-3.386-5.73-.26.521L122.6,176.33l2.084,3.907Z" transform="translate(-116.609 -101.905)" fill="#dde5ed"/>
          <path id="Path_5028" data-name="Path 5028" d="M130.693,178.27l.26-.26-2.865-5.209-.521.521-4.167,3.386,2.084,3.125Z" transform="translate(-115.326 -98.375)" fill="#e4f4ff"/>
        </g>
      </g>
      <g id="_x31_5_1_" transform="translate(336.704 39.525)">
        <path id="Path_5029" data-name="Path 5029" d="M199.581,96.248l.26,6.251-1.563-37.767a7.357,7.357,0,0,0-7.032-7.032H174.577a1.192,1.192,0,0,0-1.042,1.3,5.486,5.486,0,0,1-1.3,3.386,4.952,4.952,0,0,1-3.386,1.3H165.2V96.509h34.381ZM170.93,64.732h19.795a4.945,4.945,0,0,1,4.949,4.949l.781,18.232a4.967,4.967,0,0,1-4.688,5.209H171.191a5.008,5.008,0,0,1-4.949-5.209V69.681A4.733,4.733,0,0,1,170.93,64.732Z" transform="translate(-124.568 -52.23)" fill="#b0b4b7"/>
        <path id="Path_5030" data-name="Path 5030" d="M186.541,63.53h-3.907a4.669,4.669,0,0,1-4.688-4.688A.921.921,0,0,0,176.9,57.8H160.235a7.174,7.174,0,0,0-7.032,7.032l-1.3,31.776h34.9V63.53ZM180.03,92.962H159.453a4.656,4.656,0,0,1-4.688-5.209l.781-18.232a5.123,5.123,0,0,1,4.949-4.949H180.29a4.733,4.733,0,0,1,4.688,4.949V87.753A5.008,5.008,0,0,1,180.03,92.962Z" transform="translate(-145.909 -52.07)" fill="#c0d1e1"/>
        <path id="Path_5031" data-name="Path 5031" d="M187.023,75H151.86l-.26,7.553h35.423Z" transform="translate(-146.391 -24.471)" fill="#c0d1e1"/>
        <path id="Path_5032" data-name="Path 5032" d="M165.2,82.553h35.162L200.1,75H165.2Z" transform="translate(-124.568 -24.471)" fill="#b0b4b7"/>
        <path id="Path_5033" data-name="Path 5033" d="M200.883,89.1l-.26-8.6H165.2V97.43h28.651C198.018,97.43,201.144,93.783,200.883,89.1Zm-9.377,2.084a1.23,1.23,0,0,1-1.3,1.3H175.618a1.23,1.23,0,0,1-1.3-1.3V86.23a1.23,1.23,0,0,1,1.3-1.3H190.2a1.23,1.23,0,0,1,1.3,1.3Z" transform="translate(-124.568 -15.645)" fill="#b0b4b7"/>
        <path id="Path_5034" data-name="Path 5034" d="M151.669,80.5l-.26,8.6c-.26,4.428,3.126,8.335,7.293,8.335h28.911V80.5Zm24.744,11.981H161.827a1.23,1.23,0,0,1-1.3-1.3V86.23a1.23,1.23,0,0,1,1.3-1.3h14.586a1.23,1.23,0,0,1,1.3,1.3v4.949A1.23,1.23,0,0,1,176.413,92.481Z" transform="translate(-146.72 -15.645)" fill="#c0d1e1"/>
        <path id="Path_5035" data-name="Path 5035" d="M165.666,56.027a6.082,6.082,0,0,0-3.126,2.6,7.228,7.228,0,0,0,0,4.688,4.58,4.58,0,0,0,3.126,2.6,28.7,28.7,0,0,0,4.688.521V55.766A13.408,13.408,0,0,0,165.666,56.027Z" transform="translate(-129.462 -55.506)" fill="#f9773d"/>
        <path id="Path_5036" data-name="Path 5036" d="M172.493,63.153a7.228,7.228,0,0,0,0-4.688,4.58,4.58,0,0,0-3.126-2.6,22.4,22.4,0,0,0-4.167-.26V66.279a22.8,22.8,0,0,0,4.167-.521A5.068,5.068,0,0,0,172.493,63.153Z" transform="translate(-124.568 -55.6)" fill="#ea5f21"/>
        <path id="Path_5037" data-name="Path 5037" d="M165.6,83.581a5.178,5.178,0,0,0,4.949,5.209h20.576a4.656,4.656,0,0,0,4.688-5.209l-.781-18.232a5.123,5.123,0,0,0-4.949-4.949H170.288a4.733,4.733,0,0,0-4.688,4.949Z" transform="translate(-123.926 -47.898)" fill="#1893d1"/>
        <path id="Path_5038" data-name="Path 5038" d="M178.525,60.4H158.73a4.945,4.945,0,0,0-4.949,4.949L153,83.581a4.967,4.967,0,0,0,4.688,5.209h20.576a5.008,5.008,0,0,0,4.949-5.209V65.349A4.583,4.583,0,0,0,178.525,60.4Z" transform="translate(-144.144 -47.898)" fill="#4db5ea"/>
        <path id="Path_5039" data-name="Path 5039" d="M165.2,72.5v6.512h34.9l-.261-.26-.26-6.251Z" transform="translate(-124.568 -28.482)" fill="#ea5f21"/>
        <path id="Path_5040" data-name="Path 5040" d="M186.862,72.5h-34.9l-.26,6.512h35.162Z" transform="translate(-146.23 -28.482)" fill="#f9773d"/>
        <path id="Path_5041" data-name="Path 5041" d="M165.2,84.672h36.2V77.9H165.2Z" transform="translate(-124.568 -19.817)" fill="#ea5f21"/>
        <path id="Path_5042" data-name="Path 5042" d="M187.664,77.9H151.2v6.772h36.464Z" transform="translate(-147.033 -19.817)" fill="#f9773d"/>
        <path id="Path_5043" data-name="Path 5043" d="M170.788,82.2H156.2a1.23,1.23,0,0,0-1.3,1.3v4.949a1.23,1.23,0,0,0,1.3,1.3h14.586a1.23,1.23,0,0,0,1.3-1.3V83.5A1.23,1.23,0,0,0,170.788,82.2Z" transform="translate(-141.096 -12.918)" fill="#ea5f21"/>
        <path id="Path_5044" data-name="Path 5044" d="M184.588,82.2H170a1.23,1.23,0,0,0-1.3,1.3v4.949a1.23,1.23,0,0,0,1.3,1.3h14.586a1.23,1.23,0,0,0,1.3-1.3V83.5A1.23,1.23,0,0,0,184.588,82.2Z" transform="translate(-118.952 -12.918)" fill="#ea5f21"/>
        <path id="Path_5045" data-name="Path 5045" d="M165.488,96.772,169.916,90h-7.293L149.86,106.149l-.26.26h9.377l2.344-3.646h28.911V96.511H165.488Z" transform="translate(-149.6 -0.402)" fill="#185377"/>
        <path id="Path_5046" data-name="Path 5046" d="M205.15,106.149,192.388,90h-7.293l4.428,6.772H165.3v6.251h28.39l2.344,3.646h9.377Z" transform="translate(-124.408 -0.402)" fill="#074b68"/>
        <path id="Path_5047" data-name="Path 5047" d="M173.3,87.7Z" transform="translate(-111.571 -4.092)" fill="#4d4d4d"/>
        <path id="Path_5048" data-name="Path 5048" d="M157.481,87.7h0Z" transform="translate(-138.207 -4.092)" fill="#4d4d4d"/>
        <path id="Path_5049" data-name="Path 5049" d="M184.616,93.691V87.7H154.4a1.23,1.23,0,0,0-1.3,1.3v3.646a1.23,1.23,0,0,0,1.3,1.3h30.213Z" transform="translate(-143.984 -4.092)" fill="#4db5ea"/>
        <path id="Path_5050" data-name="Path 5050" d="M185,93.851h9.9a1.23,1.23,0,0,0,1.3-1.3V88.9a1.23,1.23,0,0,0-1.3-1.3H165.2v6.251Z" transform="translate(-124.568 -4.253)" fill="#1893d1"/>
      </g>
      <g id="Group_596" data-name="Group 596" transform="translate(77.025 244.507)">
        <g id="Group_594" data-name="Group 594">
          <rect id="Rectangle_2180" data-name="Rectangle 2180" width="44.278" height="67.98" transform="translate(44.539)" fill="#eabe32"/>
          <rect id="Rectangle_2181" data-name="Rectangle 2181" width="44.278" height="67.98" transform="translate(0.26)" fill="#f7dc54"/>
          <path id="Path_5051" data-name="Path 5051" d="M103.36,157h0l-.26,8.074v.26h.26a1.681,1.681,0,0,0,1.563-1.563v-5.209A1.681,1.681,0,0,0,103.36,157Z" transform="translate(35.465 -97.876)" fill="#ea5f21"/>
          <path id="Path_5052" data-name="Path 5052" d="M102.8,160.4Z" transform="translate(34.983 -92.42)" fill="#4db5ea"/>
          <path id="Path_5053" data-name="Path 5053" d="M130.2,178.023c-.521-1.042-14.846-35.423-28.39-35.423H85.4v36.725h45.06A1.952,1.952,0,0,0,130.2,178.023Zm-30.995-2.6H89.567v-2.6H99.2Zm-8.6-7.032V148.591h10.679c5.47-.26,10.418,4.949,13.8,9.9a50.86,50.86,0,0,1,5.209,9.9Z" transform="translate(7.063 -120.982)" fill="#ea5f21"/>
          <path id="Path_5054" data-name="Path 5054" d="M131.341,157.481v-.521l-.521-.26H85.5v9.9h45.06a.691.691,0,0,0,.781-.781v-8.335Z" transform="translate(7.224 -98.357)" fill="#4db5ea"/>
          <path id="Path_5055" data-name="Path 5055" d="M98.079,144.906H87.4v9.9h24.483C108.5,149.594,103.549,144.646,98.079,144.906Z" transform="translate(10.273 -117.297)" fill="#dde5ed"/>
          <path id="Path_5056" data-name="Path 5056" d="M59.277,165v-2.6H49.9v8.335h9.377V165Z" transform="translate(-49.9 -89.211)" fill="#333"/>
          <path id="Path_5057" data-name="Path 5057" d="M66,164.5a9.354,9.354,0,0,1,1.823,2.6A5.954,5.954,0,0,0,66,164.5Z" transform="translate(-24.066 -85.841)" fill="#4890ac"/>
          <path id="Path_5058" data-name="Path 5058" d="M67.1,166.3a13.2,13.2,0,0,1,.521,3.386h0A13.2,13.2,0,0,0,67.1,166.3Z" transform="translate(-22.301 -82.953)" fill="#4890ac"/>
          <path id="Path_5059" data-name="Path 5059" d="M58.7,169.586h0a15.243,15.243,0,0,1,.521-3.386A17.924,17.924,0,0,0,58.7,169.586Z" transform="translate(-35.78 -83.113)" fill="#4890ac"/>
          <path id="Path_5060" data-name="Path 5060" d="M59.2,167.1a9.354,9.354,0,0,1,1.823-2.6A22.528,22.528,0,0,0,59.2,167.1Z" transform="translate(-34.977 -85.841)" fill="#4890ac"/>
          <path id="Path_5061" data-name="Path 5061" d="M98.723,170.53h15.628V164.8H96.9A21.054,21.054,0,0,1,98.723,170.53Z" transform="translate(25.516 -85.36)" fill="#ea5f21"/>
          <path id="Path_5062" data-name="Path 5062" d="M69.223,170.53h50.008a14.79,14.79,0,0,1,1.823-5.73H67.4A14.789,14.789,0,0,1,69.223,170.53Z" transform="translate(-21.819 -85.36)" fill="#ea5f21"/>
          <path id="Path_5063" data-name="Path 5063" d="M53.5,164.326v2.344H70.43a13.023,13.023,0,0,1,15.628,0h60.948a13.023,13.023,0,0,1,15.628,0h21.1V161.2H53.5Z" transform="translate(-44.123 -91.136)" fill="#ea5f21"/>
          <path id="Path_5064" data-name="Path 5064" d="M53.5,164.8v5.73H64.96a14.789,14.789,0,0,1,1.823-5.73Z" transform="translate(-44.123 -85.36)" fill="#ea5f21"/>
          <path id="Path_5065" data-name="Path 5065" d="M108.876,169.191a9.355,9.355,0,0,0-1.823-2.6,11.292,11.292,0,0,0-7.814-3.386,10.4,10.4,0,0,0-7.814,3.386,9.354,9.354,0,0,0-1.823,2.6,17.952,17.952,0,0,0-.781,2.084,13.2,13.2,0,0,0-.521,3.386h0a11.2,11.2,0,0,0,22.4,0h0a15.244,15.244,0,0,0-.521-3.386A14.543,14.543,0,0,0,108.876,169.191Zm-14.846.26a7.116,7.116,0,0,1,4.949-2.084,7,7,0,0,1,7.032,7.032,7.116,7.116,0,0,1-7.032,7.032,7,7,0,0,1-7.032-7.032A7.116,7.116,0,0,1,94.03,169.451Z" transform="translate(11.717 -87.927)" fill="#333"/>
          <path id="Path_5066" data-name="Path 5066" d="M96.732,177.581a7.116,7.116,0,0,0,4.949-2.084l-9.9-9.9a7,7,0,0,0,4.949,11.981Z" transform="translate(13.963 -84.076)" fill="#f7dc54"/>
          <path id="Path_5067" data-name="Path 5067" d="M102.481,171.832a7,7,0,0,0-7.032-7.032,7.116,7.116,0,0,0-4.949,2.084l9.9,9.9A6.269,6.269,0,0,0,102.481,171.832Z" transform="translate(15.247 -85.36)" fill="#eabe32"/>
          <rect id="Rectangle_2182" data-name="Rectangle 2182" width="9.637" height="2.605" transform="translate(96.891 51.832)" fill="#333"/>
          <path id="Path_5068" data-name="Path 5068" d="M87.4,148.7v9.9h29.692a76.728,76.728,0,0,0-5.209-9.9Z" transform="translate(10.273 -111.194)" fill="#e4f4ff"/>
          <path id="Path_5069" data-name="Path 5069" d="M53.5,163.4v3.907H66.783A13.068,13.068,0,0,1,70.43,163.4Z" transform="translate(-44.123 -87.606)" fill="#074b68"/>
          <path id="Path_5070" data-name="Path 5070" d="M69.646,167.207H123.3a13.069,13.069,0,0,1,3.646-3.907H66A17.14,17.14,0,0,1,69.646,167.207Z" transform="translate(-24.066 -87.767)" fill="#074b68"/>
          <path id="Path_5071" data-name="Path 5071" d="M99.046,167.207H116.5V163.3H95.4A12.823,12.823,0,0,1,99.046,167.207Z" transform="translate(23.109 -87.767)" fill="#074b68"/>
          <g id="Group_593" data-name="Group 593" transform="translate(23.441 75.273)">
            <path id="Path_5072" data-name="Path 5072" d="M79.476,169.191a9.355,9.355,0,0,0-1.823-2.6,11.292,11.292,0,0,0-7.814-3.386,10.4,10.4,0,0,0-7.814,3.386,9.355,9.355,0,0,0-1.823,2.6,17.946,17.946,0,0,0-.781,2.084,13.2,13.2,0,0,0-.521,3.386h0a11.2,11.2,0,0,0,22.4,0h0a15.245,15.245,0,0,0-.521-3.386A6.534,6.534,0,0,1,79.476,169.191Zm-14.846.26a7.116,7.116,0,0,1,4.949-2.084,7,7,0,0,1,7.032,7.032,7.116,7.116,0,0,1-7.032,7.032,7,7,0,0,1-7.032-7.032A7.116,7.116,0,0,1,64.63,169.451Z" transform="translate(-58.9 -163.2)" fill="#333"/>
            <path id="Path_5073" data-name="Path 5073" d="M67.332,177.581a7.116,7.116,0,0,0,4.949-2.084l-9.9-9.9a7.116,7.116,0,0,0-2.084,4.949A7,7,0,0,0,67.332,177.581Z" transform="translate(-56.654 -159.349)" fill="#f7dc54"/>
            <path id="Path_5074" data-name="Path 5074" d="M73.081,171.832a7,7,0,0,0-7.032-7.032,7.116,7.116,0,0,0-4.949,2.084l9.9,9.9A6.269,6.269,0,0,0,73.081,171.832Z" transform="translate(-55.37 -160.633)" fill="#eabe32"/>
          </g>
        </g>
        <g id="Group_595" data-name="Group 595" transform="translate(47.892 10.158)">
          <path id="Path_5075" data-name="Path 5075" d="M84.729,168.934a8.859,8.859,0,0,1-2.6-.261,13.565,13.565,0,0,1-8.335-5.209,11.344,11.344,0,0,1-1.823-9.116,12.463,12.463,0,0,1,9.116-9.116L79,146.8a1.726,1.726,0,0,0-.521,1.823c.26.26.521.521.781.521h.26c.521,0,.781,0,1.042-.26l6.251-4.688a1.989,1.989,0,0,0,.521-1.3c0-.521-.26-.781-.781-1.042l-6.511-3.386c-.26,0-.26,0-.521-.26a1.99,1.99,0,0,0-1.3.521,1.287,1.287,0,0,0,.26,1.823l2.084,1.3c-5.991,1.3-10.939,5.73-11.981,11.721a14.378,14.378,0,0,0,2.344,11.2,15.871,15.871,0,0,0,10.158,6.512,12.678,12.678,0,0,0,3.125.261,16.513,16.513,0,0,0,14.325-8.074H94.887A11.354,11.354,0,0,1,84.729,168.934Z" transform="translate(-68.288 -138.2)" fill="#074b68"/>
          <path id="Path_5076" data-name="Path 5076" d="M71.26,153.579v1.3h8.074v-1.823H76.47a6.472,6.472,0,0,0-2.084.26c2.344-2.6,4.428-4.688,4.428-6.772,0-2.344-1.563-3.646-3.907-3.646-1.563,0-2.6.781-3.907,1.823l1.3,1.3a2.735,2.735,0,0,1,2.344-1.3,1.917,1.917,0,0,1,2.084,2.084C76.73,148.37,74.646,150.453,71.26,153.579Z" transform="translate(-63.935 -130.658)" fill="#074b68"/>
          <path id="Path_5077" data-name="Path 5077" d="M74.6,151.756h5.209v3.126h2.084v-3.126h1.563v-1.563H81.893V142.9h-2.6L74.6,150.193Zm4.428-4.949c.26-.521.781-1.3,1.042-1.823h0v5.209H76.944Z" transform="translate(-58.158 -130.658)" fill="#074b68"/>
          <path id="Path_5078" data-name="Path 5078" d="M81.846,146.686a2.706,2.706,0,0,0-2.084,1.042V143.3H78.2v10.679h1.563V148.77c.521-.521,1.042-1.042,1.563-1.042.781,0,1.042.521,1.042,1.563v4.428H83.93V149.03C83.93,147.728,83.409,146.686,81.846,146.686Z" transform="translate(-52.382 -130.016)" fill="#074b68"/>
        </g>
      </g>
      <g id="_x38__1_" transform="translate(0 140.323)">
        <rect id="Rectangle_2183" data-name="Rectangle 2183" width="8.335" height="16.669" transform="translate(44.467 15.628)" fill="#1893d1"/>
        <rect id="Rectangle_2184" data-name="Rectangle 2184" width="8.335" height="16.669" transform="translate(36.133 15.628)" fill="#4db5ea"/>
        <rect id="Rectangle_2185" data-name="Rectangle 2185" width="8.335" height="16.669" transform="translate(23.37 15.628)" fill="#1893d1"/>
        <rect id="Rectangle_2186" data-name="Rectangle 2186" width="8.335" height="16.669" transform="translate(15.035 15.628)" fill="#4db5ea"/>
        <path id="Path_5079" data-name="Path 5079" d="M49.935,123.049h0V106.9H41.6v16.149Z" transform="translate(13.807 -74.082)" fill="#1893d1"/>
        <path id="Path_5080" data-name="Path 5080" d="M46.735,123.049V106.9H38.4v16.149Z" transform="translate(8.672 -74.082)" fill="#4db5ea"/>
        <rect id="Rectangle_2187" data-name="Rectangle 2187" width="8.335" height="16.149" transform="translate(34.309 32.818)" fill="#1893d1"/>
        <path id="Path_5081" data-name="Path 5081" d="M38.635,123.049V106.9H30.3v16.149h8.335Z" transform="translate(-4.325 -74.082)" fill="#4db5ea"/>
        <path id="Path_5082" data-name="Path 5082" d="M25.5,123.049h8.335V106.9H25.5Z" transform="translate(-12.027 -74.082)" fill="#1893d1"/>
        <path id="Path_5083" data-name="Path 5083" d="M30.635,123.049V106.9H22.3v16.149h8.335Z" transform="translate(-17.162 -74.082)" fill="#4db5ea"/>
        <path id="Path_5084" data-name="Path 5084" d="M88.492,115.9v-9.377a5.25,5.25,0,0,0-.781-2.865.255.255,0,0,0-.26-.26H48.642l-.26.26a5.251,5.251,0,0,0-.781,2.865V115.9H88.492Zm-8.856-9.116.521-.521a.909.909,0,0,1,.521-.26,2.214,2.214,0,0,1,2.084,0c.26,0,.521.26.781.521l.26.26.26.26c.26.26.26.26.26.521a1.566,1.566,0,0,1,.26,1.042v.781h0c0,.26-.26.521-.26.781h0a2.735,2.735,0,0,1-2.344,1.3,3.136,3.136,0,0,1-2.865-2.865,3.764,3.764,0,0,1,.521-1.823Zm-8.6-.521c.26,0,.26-.26.521-.26s.521-.26,1.042-.26a3.764,3.764,0,0,1,1.823.521h0l.26.26.26.26c.26.521.521.781.521,1.3a3.7,3.7,0,0,1-.521,1.563,2.735,2.735,0,0,1-2.344,1.3,2.89,2.89,0,0,1-2.865-2.865,1.952,1.952,0,0,1,.26-1.3A1.353,1.353,0,0,0,71.041,106.265Zm-9.637.26c.26-.26.26-.26.521-.26a.909.909,0,0,1,.521-.26,1.566,1.566,0,0,1,1.042-.26,3.764,3.764,0,0,1,1.823.521c.26,0,.26.26.521.521,0,.26.26.26.26.521a1.952,1.952,0,0,1,.26,1.3,3.7,3.7,0,0,1-.521,1.563c0,.26-.26.26-.521.521a2.365,2.365,0,0,1-1.823.781,2.028,2.028,0,0,1-1.823-.781,2.814,2.814,0,0,1-.781-1.823c0-.521,0-.781.26-1.042v-.26h0C61.144,107.046,61.4,106.786,61.4,106.526Zm-8.6-.26c.26,0,.26-.26.521-.26s.781-.26,1.042-.26a3.764,3.764,0,0,1,1.823.521h0c.26,0,.26.26.521.521,0,.26.26.26.26.521a1.952,1.952,0,0,1,.26,1.3,3.7,3.7,0,0,1-.521,1.563,2.735,2.735,0,0,1-2.344,1.3,2.89,2.89,0,0,1-2.865-2.865,11.281,11.281,0,0,1,.26-1.3A2.034,2.034,0,0,1,52.809,106.265Z" transform="translate(23.434 -79.698)" fill="#e6e6e6"/>
        <path id="Path_5085" data-name="Path 5085" d="M102.4,112.107a4.006,4.006,0,0,0-3.907-3.907H49.786a3.448,3.448,0,0,0-3.386,3.386V120.7h56Zm-46.1,3.126h0v.521h0c0,.26,0,.26-.26.521h0a1.432,1.432,0,0,1-1.3.781h-.781a2.792,2.792,0,0,1-1.563-.521h0a.255.255,0,0,1-.26-.26,2.365,2.365,0,0,1-.781-1.823,2.89,2.89,0,0,1,2.865-2.865H55c.26,0,.521.26.781.26h0a2.735,2.735,0,0,1,1.3,2.344h0C56.558,114.972,56.558,115.232,56.3,115.232Zm6.511,2.344a2.348,2.348,0,0,1-1.3-.26c-.26-.26-.781-.521-1.042-.781a2.365,2.365,0,0,1-.781-1.823,2.028,2.028,0,0,1,.781-1.823,2.814,2.814,0,0,1,1.823-.781,1.566,1.566,0,0,1,1.042.26.909.909,0,0,1,.521.26c.26,0,.26.26.521.26l.521.521a1.952,1.952,0,0,1,.26,1.3A2.243,2.243,0,0,1,62.809,117.577Zm11.981-2.344h0v.521h0v.521a.255.255,0,0,1-.26.26h0l-.26.26-.26.26h0a.255.255,0,0,0-.26.26H71.925a2.364,2.364,0,0,1-1.823-.781l-.26-.26a2.365,2.365,0,0,1-.781-1.823,2.891,2.891,0,0,1,2.865-2.865,11.281,11.281,0,0,1,1.3.26h.26a2.369,2.369,0,0,1,1.042,2.084h0A7.308,7.308,0,0,1,74.79,115.232Zm6.511,2.344H80.52a1.975,1.975,0,0,1-1.042-.521c-.26,0-.26-.26-.521-.521a2.518,2.518,0,0,1,0-3.646,3.215,3.215,0,0,1,2.084-1.042,3.7,3.7,0,0,1,1.563.521c.26.26.781.521.781,1.042a1.952,1.952,0,0,1,.26,1.3A2.487,2.487,0,0,1,81.3,117.577Zm9.116,0h0a3.765,3.765,0,0,1-1.823-.521l-.26-.26a2.365,2.365,0,0,1-.781-1.823,2.89,2.89,0,0,1,2.865-2.865c.521,0,.781.26,1.3.26a.255.255,0,0,1,.26.26l.26.26c.26.26.521.521.521.781a.909.909,0,0,0,.26.521v.781A2.61,2.61,0,0,1,90.418,117.577Z" transform="translate(21.509 -71.996)" fill="#c1daec"/>
        <path id="Path_5086" data-name="Path 5086" d="M106.827,113.1H46.4v5.209h62.51l.521-1.823A2.605,2.605,0,0,0,106.827,113.1Z" transform="translate(21.509 -64.134)" fill="#1893d1"/>
        <path id="Path_5087" data-name="Path 5087" d="M88.236,113.1H22.34c-2.084,0-2.6,1.563-1.3,3.386l1.3,1.823H87.976V113.1Z" transform="translate(-20.327 -64.134)" fill="#4db5ea"/>
        <path id="Path_5088" data-name="Path 5088" d="M24.9,120.6l11.2,16.409a5.091,5.091,0,0,0,3.907,1.823H80.9V120.6Z" transform="translate(-12.99 -52.099)" fill="#4db5ea"/>
        <path id="Path_5089" data-name="Path 5089" d="M46.4,138.832H96.408c1.563,0,2.865-.781,3.126-1.823l4.949-16.409H46.4Z" transform="translate(21.509 -52.099)" fill="#1893d1"/>
        <path id="Path_5090" data-name="Path 5090" d="M84.91,116.8H22.4l3.646,5.47H84.91Z" transform="translate(-17.002 -58.196)" fill="#4db5ea"/>
        <path id="Path_5091" data-name="Path 5091" d="M46.4,122.27h59.385l1.823-5.47H46.4Z" transform="translate(21.509 -58.196)" fill="#1893d1"/>
        <path id="Path_5092" data-name="Path 5092" d="M46.4,119.528h61.208l1.3-4.428H46.4Z" transform="translate(21.509 -60.924)" fill="#ea5f21"/>
        <path id="Path_5093" data-name="Path 5093" d="M86.836,115.1H21.2l3.126,4.428h62.51Z" transform="translate(-18.927 -60.924)" fill="#f9773d"/>
        <path id="Path_5094" data-name="Path 5094" d="M82.664,118.9H23.8l2.865,4.428h56Z" transform="translate(-14.755 -54.827)" fill="#f9773d"/>
        <path id="Path_5095" data-name="Path 5095" d="M46.4,123.328h58.083l1.3-4.428H46.4Z" transform="translate(21.509 -54.827)" fill="#ea5f21"/>
        <path id="Path_5096" data-name="Path 5096" d="M51.825,109.93a2.735,2.735,0,0,0,2.344-1.3,3.7,3.7,0,0,0,.521-1.563c0-.521-.26-.781-.26-1.3,0-.26-.26-.26-.26-.521s-.26-.26-.521-.521h0a2.2,2.2,0,0,0-1.823-.521,1.566,1.566,0,0,0-1.042.26c-.26,0-.26.26-.521.26a3.6,3.6,0,0,0-.781,1.042,2.348,2.348,0,0,0-.26,1.3A2.423,2.423,0,0,0,51.825,109.93Z" transform="translate(25.981 -78.414)" fill="#1893d1"/>
        <path id="Path_5097" data-name="Path 5097" d="M52.86,106.184a1.566,1.566,0,0,0-.26,1.042,2.028,2.028,0,0,0,.781,1.823,2.814,2.814,0,0,0,1.823.781,2.364,2.364,0,0,0,1.823-.781l.521-.521a3.7,3.7,0,0,0,.521-1.563c0-.521-.26-.781-.26-1.3,0-.26-.26-.26-.26-.521s-.26-.26-.521-.521A2.2,2.2,0,0,0,55.2,104.1c-.521,0-.781,0-1.042.26-.26,0-.26,0-.521.26-.26,0-.26.26-.521.26a1.034,1.034,0,0,1-.26,1.3Z" transform="translate(31.457 -78.575)" fill="#1893d1"/>
        <path id="Path_5098" data-name="Path 5098" d="M58.716,109.609a2.735,2.735,0,0,0,2.344-1.3,3.7,3.7,0,0,0,.521-1.563,11.28,11.28,0,0,0-.26-1.3,25150.843,25150.843,0,0,1-.521-.521h0a2.2,2.2,0,0,0-1.823-.521,1.566,1.566,0,0,0-1.042.26c-.26,0-.26.26-.521.26-.26.26-.781.521-.781,1.042a1.952,1.952,0,0,0-.26,1.3C55.851,108.567,57.153,109.609,58.716,109.609Z" transform="translate(37.322 -78.094)" fill="#1893d1"/>
        <path id="Path_5099" data-name="Path 5099" d="M60.381,108.988a3.215,3.215,0,0,0,2.084,1.042,2.735,2.735,0,0,0,2.344-1.3h0a.957.957,0,0,0,.26-.781h0v-.781c0-.521,0-.781-.26-1.042a.909.909,0,0,0-.26-.521l-.26-.26-.26-.26c-.26-.26-.521-.26-.781-.521-.26,0-.521-.26-1.042-.26s-.781,0-1.042.26c-.26,0-.26,0-.521.26-.26,0-.26.26-.521.521h0a3.765,3.765,0,0,0-.521,1.823C59.86,107.686,60.121,108.467,60.381,108.988Z" transform="translate(42.69 -78.254)" fill="#1893d1"/>
        <path id="Path_5100" data-name="Path 5100" d="M52.528,110.06h0a.957.957,0,0,0-.781-.26h-.781a2.89,2.89,0,0,0-2.865,2.865,2.364,2.364,0,0,0,.781,1.823.255.255,0,0,0,.26.26h0a3.7,3.7,0,0,0,1.563.521h.781a5.692,5.692,0,0,0,1.3-.781.255.255,0,0,1,.26-.26h0v-.26c0-.26.26-.26.26-.521V112.4h0A1.715,1.715,0,0,0,52.528,110.06Z" transform="translate(24.237 -69.429)" fill="#1893d1"/>
        <path id="Path_5101" data-name="Path 5101" d="M57.17,112.4a1.952,1.952,0,0,0-.26-1.3.56.56,0,0,0-.521-.521.909.909,0,0,0-.521-.26c-.26,0-.26-.26-.521-.26s-.521-.26-1.042-.26a2.028,2.028,0,0,0-1.823.781A2.814,2.814,0,0,0,51.7,112.4a2.364,2.364,0,0,0,.781,1.823,3.6,3.6,0,0,0,1.042.781,1.952,1.952,0,0,0,1.3.26A3.388,3.388,0,0,0,57.17,112.4Z" transform="translate(30.013 -69.429)" fill="#1893d1"/>
        <path id="Path_5102" data-name="Path 5102" d="M59.628,110.221h0l-.26-.26a2.348,2.348,0,0,0-1.3-.26,2.89,2.89,0,0,0-2.865,2.865,2.364,2.364,0,0,0,.781,1.823l.26.26a2.365,2.365,0,0,0,1.823.781h1.3a4191.654,4191.654,0,0,0,.521-.521h0l.26-.26.26-.26h0a.909.909,0,0,0,.26-.521v-.26c0-.26,0-.26.26-.521h0v-.521h0A5.036,5.036,0,0,0,59.628,110.221Z" transform="translate(35.629 -69.589)" fill="#1893d1"/>
        <path id="Path_5103" data-name="Path 5103" d="M64.17,112.565a2.348,2.348,0,0,0-.26-1.3,3.6,3.6,0,0,0-.781-1.042,3.7,3.7,0,0,0-1.563-.521,2.763,2.763,0,0,0-2.084,4.688c0,.26.26.26.521.521s.521.26,1.042.521h.781A3.388,3.388,0,0,0,64.17,112.565Z" transform="translate(41.245 -69.589)" fill="#1893d1"/>
        <path id="Path_5104" data-name="Path 5104" d="M67.409,111.263c-.26-.26-.26-.521-.521-.781l-.26-.26a.255.255,0,0,1-.26-.26,1.952,1.952,0,0,0-1.3-.26,2.89,2.89,0,0,0-2.865,2.865,2.364,2.364,0,0,0,.781,1.823l.26.26a2.2,2.2,0,0,0,1.823.521h0A2.891,2.891,0,0,0,67.93,112.3v-.781C67.67,111.523,67.67,111.263,67.409,111.263Z" transform="translate(46.861 -69.589)" fill="#1893d1"/>
        <rect id="Rectangle_2188" data-name="Rectangle 2188" width="10.158" height="1.563" transform="translate(94.997 8.074)" fill="#c1daec"/>
        <rect id="Rectangle_2189" data-name="Rectangle 2189" width="10.158" height="1.563" transform="translate(94.997 4.428)" fill="#c1daec"/>
        <path id="Path_5105" data-name="Path 5105" d="M66.8,95.6a1.23,1.23,0,0,0-1.3-1.3H58.2a1.23,1.23,0,0,0-1.3,1.3v1.3H67.058V95.6Z" transform="translate(38.357 -94.3)" fill="#e6e6e6"/>
        <rect id="Rectangle_2190" data-name="Rectangle 2190" width="10.158" height="10.418" transform="translate(94.997 11.46)" fill="#e6e6e6"/>
        <rect id="Rectangle_2191" data-name="Rectangle 2191" width="10.158" height="1.823" transform="translate(94.997 2.605)" fill="#ea5f21"/>
        <rect id="Rectangle_2192" data-name="Rectangle 2192" width="10.158" height="1.823" transform="translate(94.997 6.251)" fill="#ea5f21"/>
        <rect id="Rectangle_2193" data-name="Rectangle 2193" width="10.158" height="1.823" transform="translate(94.997 9.637)" fill="#ea5f21"/>
        <path id="Path_5106" data-name="Path 5106" d="M83,102.7H51.746a4.557,4.557,0,0,0-3.646,1.823H86.909A6.068,6.068,0,0,0,83,102.7Z" transform="translate(24.237 -80.821)" fill="#ea5f21"/>
      </g>
      <g id="_x31__2_" transform="translate(43.662 0.977)">
        <g id="Group_607" data-name="Group 607">
          <g id="Group_597" data-name="Group 597" transform="translate(104.728 106.528)">
            <path id="Path_5107" data-name="Path 5107" d="M94.23,100.453s-8.074,2.865-16.93-2.865C78.6,86.128,79.123,81.7,79.123,81.7s10.679,0,16.93,1.823A59.866,59.866,0,0,1,94.23,100.453Z" transform="translate(-77.3 -81.7)" fill="#333"/>
            <path id="Path_5108" data-name="Path 5108" d="M82.67,90.474c-.521,4.688.781,8.6,3.126,8.856s4.428-3.386,4.949-8.074-.781-8.6-3.125-8.856C85.275,82.4,83.191,85.786,82.67,90.474Z" transform="translate(-68.866 -80.577)" fill="#f7dc54"/>
          </g>
          <path id="Path_5109" data-name="Path 5109" d="M70.4,42l.781,3.126L95.144,74.3c.781-.781,1.563-1.3,2.344-2.084Z" transform="translate(16.357 -38.874)" fill="#ea5f21"/>
          <path id="Path_5110" data-name="Path 5110" d="M117.964,60.855,83.844,41.842a6.722,6.722,0,0,0-5.47-.781l-8.074,2.6L97.388,74.139A119.759,119.759,0,0,1,117.964,60.855Z" transform="translate(16.196 -40.8)" fill="#4db5ea"/>
          <g id="Group_598" data-name="Group 598" transform="translate(126.347 85.17)">
            <path id="Path_5111" data-name="Path 5111" d="M98.623,87.825S92.632,89.909,85.6,85.742C86.642,76.886,86.9,73.5,86.9,73.5s8.074,0,13.023,1.563A43.165,43.165,0,0,1,98.623,87.825Z" transform="translate(-85.6 -73.5)" fill="#333"/>
            <path id="Path_5112" data-name="Path 5112" d="M89.783,80c-.521,3.646.521,6.512,2.344,6.772s3.386-2.6,3.907-5.991c.521-3.646-.521-6.511-2.344-6.772S90.3,76.615,89.783,80Z" transform="translate(-79.104 -72.708)" fill="#f7dc54"/>
          </g>
          <g id="Group_601" data-name="Group 601" transform="translate(0 16.041)">
            <g id="Group_600" data-name="Group 600">
              <g id="Group_599" data-name="Group 599" transform="translate(13.828)">
                <path id="Path_5113" data-name="Path 5113" d="M102.881,50.973c-7.032,3.126-13.8,8.074-20.316,13.283-.781.781-1.563,1.3-2.344,2.084-.26,0-.26.26-.521.521,9.9.26,30.213-2.344,52.353-17.972C121.634,45.5,112,46.806,102.881,50.973Z" transform="translate(17.452 -46.959)" fill="#f9773d"/>
                <path id="Path_5114" data-name="Path 5114" d="M216.648,55.574l-10.939-1.3a14.031,14.031,0,0,1-5.47-2.084l-.26-.26c-.26-.26-.781-.521-1.042-.781-1.3-.781-2.865-1.563-4.688-2.865-.781-.26-1.3-.521-2.084-.781-22.139,15.628-42.455,18.493-52.352,17.972-5.73,4.688-36.2,26.827-52.092,30.734-9.377-.26-24.483-11.721-34.9-20.316L42.4,77.192c1.042,1.3,1.823,2.6,2.865,3.907h0c.521.521.781,1.042,1.3,1.563l.26.26c.26.521.781.781,1.042,1.3l.26.26c.26.521.781.781,1.042,1.3l.26.26,1.042,1.042.521.521,1.042,1.042.521.521L53.6,90.215c.26.26.521.26.521.521l1.042,1.042c.26.26.521.521.781.521a3.6,3.6,0,0,0,1.042.781l.781.781.781.781.781.781.781.781.781.781.781.781a3.6,3.6,0,0,0,1.042.781c.26.26.521.521.781.521.26.26.781.521,1.042.781s.521.521.781.521c.26.26.781.521,1.042.781s.521.26.781.521.781.521,1.042.781.521.26.781.521a1.975,1.975,0,0,0,1.042.521c.26.26.521.26.781.521.521.26.781.521,1.3.521.26.26.521.26.781.521.521.26.781.26,1.3.521.26.26.521.26.781.521.521.26.781.26,1.3.521.26,0,.521.26.781.26.521.26.781.26,1.3.521.26,0,.521.26.781.26.521.26,1.042.26,1.3.521.26,0,.521.26.781.26a3.3,3.3,0,0,0,1.563.26c.26,0,.521.26.781.26.781.26,1.563.26,2.344.521a50.379,50.379,0,0,0,27.869-2.865c17.711-6.772,34.9-12.5,50.529-17.711,3.126-1.042,6.251-2.084,9.377-3.386l2.344-.781c.781-.26,1.3-.521,2.084-.781a231.156,231.156,0,0,0,23.7-10.158h0a28.406,28.406,0,0,0,2.865-1.563c.26,0,.26-.26.521-.26l2.344-1.563c.26-.26.521-.26.781-.521a11.027,11.027,0,0,0,1.823-1.3c.26-.26.781-.521,1.042-.781.521-.26,1.042-.781,1.563-1.042a5.681,5.681,0,0,0,1.3-1.042c.26-.26.781-.521,1.042-.781.521-.521,1.042-.781,1.563-1.3l.781-.781,1.563-1.563.521-.521a11.33,11.33,0,0,0,1.563-1.823C221.336,57.137,218.992,55.835,216.648,55.574Z" transform="translate(-42.4 -46.09)" fill="#ea5f21"/>
              </g>
              <path id="Path_5115" data-name="Path 5115" d="M46.151,65.1l10.418-1.3c-3.907-3.126-7.293-5.991-9.377-7.553A5.05,5.05,0,0,0,42.5,55.46l-2.6.781.26.26h0C41.723,59.107,43.807,61.972,46.151,65.1Z" transform="translate(-32.584 -33.735)" fill="#f9773d"/>
              <path id="Path_5116" data-name="Path 5116" d="M229.155,55.092l-1.3-2.865c-.26-.26-.521-.521-.781-.26l-1.563,1.563-.521.521-1.563,1.563-.781.781c-.521.521-1.042.781-1.563,1.3-.26.26-.781.521-1.042.781a5.681,5.681,0,0,0-1.3,1.042c-.521.26-1.042.781-1.563,1.042-.26.26-.781.521-1.042.781-.521.521-1.3.781-1.823,1.3-.26.26-.521.26-.781.521l-2.344,1.563c-.26,0-.26.26-.521.26a28.409,28.409,0,0,0-2.865,1.563h0A202.482,202.482,0,0,1,184.1,76.71c-.781.26-1.3.521-2.084.781l-2.344.781c-3.126,1.042-5.991,2.084-9.377,3.386-15.628,5.47-32.818,10.939-50.529,17.711a50.584,50.584,0,0,1-27.869,2.865c-.781-.26-1.563-.26-2.344-.521-.26,0-.521-.26-.781-.26-.521,0-1.042-.26-1.563-.26-.26,0-.521-.26-.781-.26-.521-.26-1.042-.26-1.3-.521-.26,0-.521-.26-.781-.26-.521-.26-.781-.26-1.3-.521-.26,0-.521-.26-.781-.26-.521-.26-.781-.26-1.3-.521-.26,0-.521-.26-.781-.521-.521-.26-.781-.26-1.3-.521-.26-.26-.521-.26-.781-.521-.521-.26-.781-.521-1.3-.521-.26-.26-.521-.26-.781-.521a1.975,1.975,0,0,0-1.042-.521c-.26-.26-.521-.26-.781-.521s-.781-.521-1.042-.781-.521-.26-.781-.521-.781-.521-1.042-.781-.521-.521-.781-.521c-.26-.26-.781-.521-1.042-.781s-.521-.521-.781-.521a3.6,3.6,0,0,0-1.042-.781l-.781-.781-.781-.781-.781-.781-.781-.781-.781-.781-.781-.781a3.6,3.6,0,0,0-1.042-.781c-.26-.26-.521-.521-.781-.521-.26-.26-.781-.521-1.042-1.042-.26-.26-.521-.26-.521-.521l-1.042-1.042-.521-.521L56.99,80.357l-.521-.521-1.042-1.042-.26-.26c-.26-.521-.781-.781-1.042-1.3l-.26-.26a4.573,4.573,0,0,1-1.042-1.3l-.26-.26c-.521-.521-.781-1.042-1.3-1.563h0A37.269,37.269,0,0,1,48.4,69.938L39.8,70.98c5.209,9.9,18.753,26.827,31.516,38.548,5.47,4.949,10.679,9.116,15.367,11.2,8.6,3.907,20.316,6.251,38.027,1.3l2.344-.781c7.293-2.344,15.888-5.209,26.567-8.856,69.8-21.1,73.971-41.153,76.315-52.352A10.982,10.982,0,0,0,229.155,55.092Z" transform="translate(-32.744 -39.097)" fill="#1893d1"/>
              <path id="Path_5117" data-name="Path 5117" d="M44.668,55.96c-.26-.26-.26-.26-.521-.26l-6.512,1.823c-.521.26-.781,1.042-.26,1.3,0,0,1.823,2.6,4.949,6.512l8.6-1.042A98.487,98.487,0,0,1,44.668,55.96Z" transform="translate(-37.091 -32.933)" fill="#4db5ea"/>
            </g>
          </g>
          <path id="Path_5118" data-name="Path 5118" d="M131.064,53.067a1.353,1.353,0,0,1-.521,1.042c-8.074,11.46-18.232,13.283-24.744,13.283A16.78,16.78,0,0,1,95.381,62.7a2.365,2.365,0,0,1-.781-1.823c.26-.781.521-1.3,1.3-1.3,9.377-1.042,15.888-4.688,19.014-10.679a3.6,3.6,0,0,1,1.042.781.255.255,0,0,1,.26.26,15.757,15.757,0,0,0,5.47,2.084Z" transform="translate(55.188 -27.803)" fill="#333"/>
          <g id="Group_602" data-name="Group 602" transform="translate(80.506 54.436)">
            <path id="Path_5119" data-name="Path 5119" d="M150.826,61.7,87.795,132.024a13.373,13.373,0,0,1-12.5,4.688L68,135.15l2.084,3.126,6.512.781c4.167.521,8.335-1.042,11.721-4.688L152.389,64.3Z" transform="translate(-68 -61.7)" fill="#ea5f21"/>
            <path id="Path_5120" data-name="Path 5120" d="M150.826,61.7l-43.5,13.023L68,135.15l8.6,1.823c3.646.781,7.293-.781,10.158-3.907Z" transform="translate(-68 -61.7)" fill="#4db5ea"/>
          </g>
          <g id="Group_603" data-name="Group 603" transform="translate(151.351 21.879)">
            <path id="Path_5121" data-name="Path 5121" d="M95.2,60.921c7.032,4.428,16.409,4.949,26.046-1.823l-5.991-9.9C112.651,54.149,107.442,59.618,95.2,60.921Z" transform="translate(-95.2 -49.2)" fill="#dde5ed"/>
            <path id="Path_5122" data-name="Path 5122" d="M116.283,52.426l-7.553-.781a14.031,14.031,0,0,1-5.47-2.084L103,49.3l5.991,9.9A83.339,83.339,0,0,0,116.283,52.426Z" transform="translate(-82.684 -49.04)" fill="#e4f4ff"/>
          </g>
          <path id="Path_5123" data-name="Path 5123" d="M105.294,87.046c-17.711,4.949-29.432,2.6-38.027-1.3-4.688-2.084-9.9-6.251-15.367-11.2C62.839,71.94,92.011,74.8,105.294,87.046Z" transform="translate(-13.328 11.929)" fill="#333"/>
          <g id="Group_605" data-name="Group 605" transform="translate(72.407 30.995)">
            <path id="Path_5124" data-name="Path 5124" d="M72.432,69.89l-.26-1.3c-.26-2.084-1.823-3.646-3.646-3.126h-.26c-1.823.26-2.865,2.344-2.865,4.688l.26,1.563.26,1.563c.26,2.084,1.823,3.646,3.646,3.126h.26c1.823-.26,2.865-2.344,2.865-4.688Z" transform="translate(-64.073 -32.384)" fill="#333"/>
            <path id="Path_5125" data-name="Path 5125" d="M77.1,68.03V66.988c-.26-2.084-1.823-3.646-3.646-3.126l-.521.26c-1.823.521-2.865,2.6-2.6,4.688l.26,1.823.26,1.563c.26,2.084,1.823,3.646,3.646,3.126l.521-.26c1.823-.521,2.865-2.6,2.6-4.688Z" transform="translate(-56.235 -34.951)" fill="#333"/>
            <path id="Path_5126" data-name="Path 5126" d="M82.357,65.627v-.781A3.268,3.268,0,0,0,78.71,61.72l-.781.26c-1.823.521-2.865,2.6-2.6,4.688l.26,1.823.26,2.084A3.268,3.268,0,0,0,79.492,73.7l.781-.26c1.823-.521,2.865-2.6,2.6-4.688Z" transform="translate(-48.212 -38.279)" fill="#333"/>
            <path id="Path_5127" data-name="Path 5127" d="M87.778,63.178l-.26-1.042c-.26-2.084-2.084-3.386-3.646-2.865l-1.042.26c-1.823.521-2.865,2.6-2.6,4.688l.521,2.344.26,2.084c.26,2.084,2.084,3.386,3.646,2.865l1.042-.26c1.823-.521,2.865-2.6,2.6-4.688Z" transform="translate(-40.349 -42.341)" fill="#333"/>
            <path id="Path_5128" data-name="Path 5128" d="M92.5,61.68l-.521-2.344c-.26-2.084-2.084-3.386-3.646-2.865l-1.3.521c-1.823.521-2.865,2.865-2.344,4.949l.781,3.646.26,1.042c.26,2.084,2.084,3.386,3.646,2.865l1.3-.521c1.823-.521,2.865-2.865,2.344-4.949Z" transform="translate(-33.347 -46.834)" fill="#333"/>
            <g id="Group_604" data-name="Group 604">
              <path id="Path_5129" data-name="Path 5129" d="M74.292,69.388c-.26-2.6-1.823-4.428-3.907-4.688H68.822c-2.344.521-4.167,3.386-3.907,6.512l.26,3.126c.26,2.6,1.823,4.428,3.907,4.688h1.563c2.344-.521,4.167-3.386,3.907-6.512Z" transform="translate(-64.89 -33.445)" fill="#333"/>
              <path id="Path_5130" data-name="Path 5130" d="M79.076,67.628c-.26-2.344-1.823-4.428-3.907-4.428h-1.3l-.26.26A3.754,3.754,0,0,0,70.742,65.8a6.038,6.038,0,0,0-.781,4.167l.521,3.386a4.741,4.741,0,0,0,3.907,4.428h1.3l.26-.26c2.344-.521,4.167-3.646,3.907-6.512Z" transform="translate(-56.912 -35.852)" fill="#333"/>
              <path id="Path_5131" data-name="Path 5131" d="M84.658,65.428A4.741,4.741,0,0,0,80.751,61a3.871,3.871,0,0,0-1.563.26l-.781.26a4.358,4.358,0,0,0-2.865,2.344,6.038,6.038,0,0,0-.781,4.167l.521,3.907a4.741,4.741,0,0,0,3.907,4.428,3.871,3.871,0,0,0,1.563-.26l.781-.26A4.359,4.359,0,0,0,84.4,73.5a6.038,6.038,0,0,0,.781-4.167Z" transform="translate(-49.21 -39.382)" fill="#333"/>
              <path id="Path_5132" data-name="Path 5132" d="M89.818,62.667c-.26-2.344-1.823-4.167-3.907-4.167a3.3,3.3,0,0,0-1.563.26l-1.042.26c-1.3.26-2.084,1.3-2.865,2.6a6.038,6.038,0,0,0-.781,4.167L80.7,70.221c.26,2.344,1.823,4.167,3.907,4.167h0a3.3,3.3,0,0,0,1.563-.26l1.042-.26c1.3-.26,2.084-1.3,2.865-2.6A6.038,6.038,0,0,0,90.86,67.1Z" transform="translate(-41.348 -43.393)" fill="#333"/>
              <path id="Path_5133" data-name="Path 5133" d="M94.221,59.867A4.472,4.472,0,0,0,90.574,55.7a3.3,3.3,0,0,0-1.563.26l-1.563.521a5.412,5.412,0,0,0-2.865,2.6,7.425,7.425,0,0,0-.521,4.167l.781,4.688c.521,2.344,1.823,3.907,3.646,4.167h0a3.3,3.3,0,0,0,1.563-.26l1.3-.521c2.344-.781,3.907-3.907,3.386-6.772Z" transform="translate(-34.29 -47.886)" fill="#333"/>
              <path id="Path_5134" data-name="Path 5134" d="M100.183,63.9l-1.3-7.293c-.521-2.084-1.823-3.907-3.646-3.907a3.3,3.3,0,0,0-1.563.26l-1.823.521c-2.344.781-3.907,3.907-3.386,7.032l1.3,7.293c.521,2.084,1.823,3.907,3.646,3.907a3.3,3.3,0,0,0,1.563-.26l1.563-.521a6.748,6.748,0,0,0,2.865-2.6A6.49,6.49,0,0,0,100.183,63.9Z" transform="translate(-27.229 -52.7)" fill="#333"/>
            </g>
            <path id="Path_5135" data-name="Path 5135" d="M98.1,63.439l-.521-3.386L96.8,56.146c-.521-2.084-2.084-3.386-3.907-2.6l-1.563.521c-1.823.521-2.865,2.865-2.344,4.949l1.042,5.209.521,2.084c.521,2.084,2.084,3.386,3.907,2.6l1.563-.521C97.578,67.867,98.62,65.522,98.1,63.439Z" transform="translate(-26.447 -51.718)" fill="#333"/>
          </g>
          <g id="Group_606" data-name="Group 606" transform="translate(74.776 32.068)">
            <path id="Path_5136" data-name="Path 5136" d="M68.926,65.162h0c-2.084.521-3.126,2.6-3.126,4.688l.26,1.563a31.83,31.83,0,0,0,6.512-1.823l-.26-1.3C72.051,66.2,70.488,64.641,68.926,65.162Z" transform="translate(-65.8 -33.938)" fill="#e4f4ff"/>
            <path id="Path_5137" data-name="Path 5137" d="M65.9,70.186c.26,2.084,1.823,3.646,3.646,3.126h.26c1.823-.26,2.865-2.344,2.865-4.688l-.26-1.823c-2.865.781-4.949,1.3-6.512,1.823Z" transform="translate(-65.64 -31.148)" fill="#dde5ed"/>
            <path id="Path_5138" data-name="Path 5138" d="M70.86,69.428c.26,2.084,1.823,3.646,3.646,3.126l.521-.26c1.823-.521,2.865-2.6,2.6-4.688l-.26-2.6c-2.344,1.042-4.688,1.823-6.772,2.6Z" transform="translate(-58.098 -34.036)" fill="#dde5ed"/>
            <path id="Path_5139" data-name="Path 5139" d="M73.75,63.562l-.521.26c-1.823.521-2.865,2.6-2.6,4.688l.26,1.823c2.084-.781,4.167-1.563,6.772-2.6l-.26-1.042C77.136,64.6,75.313,63.041,73.75,63.562Z" transform="translate(-58.122 -36.506)" fill="#e4f4ff"/>
            <path id="Path_5140" data-name="Path 5140" d="M79.01,61.42l-.781.26c-1.823.521-2.865,2.6-2.6,4.688l.26,1.823c2.084-1.042,4.428-2.084,6.772-3.126v-.781A3.241,3.241,0,0,0,79.01,61.42Z" transform="translate(-50.099 -39.834)" fill="#e4f4ff"/>
            <path id="Path_5141" data-name="Path 5141" d="M75.96,67.949a3.268,3.268,0,0,0,3.646,3.126l.781-.26c1.823-.521,2.865-2.6,2.6-4.688L82.472,63c-2.344,1.042-4.688,2.084-6.772,3.126Z" transform="translate(-49.914 -37.246)" fill="#dde5ed"/>
            <path id="Path_5142" data-name="Path 5142" d="M84.171,58.971l-1.042.26c-1.823.521-2.865,2.6-2.6,4.688l.521,2.344c2.344-1.042,4.688-2.344,7.032-3.386l-.26-1.042C87.557,59.752,85.734,58.45,84.171,58.971Z" transform="translate(-42.237 -43.895)" fill="#e4f4ff"/>
            <path id="Path_5143" data-name="Path 5143" d="M80.96,65.709c.26,2.084,2.084,3.386,3.646,2.865l1.042-.26c1.823-.521,2.865-2.6,2.6-4.688L87.732,60.5c-2.344,1.3-4.949,2.344-7.032,3.386Z" transform="translate(-41.891 -41.257)" fill="#dde5ed"/>
            <path id="Path_5144" data-name="Path 5144" d="M85.421,63.049c.26,2.084,2.084,3.386,3.646,2.865l1.3-.521c1.823-.521,2.865-2.865,2.344-4.949L92.193,58.1c-2.6,1.3-4.949,2.6-7.293,3.646Z" transform="translate(-35.152 -45.108)" fill="#dde5ed"/>
            <path id="Path_5145" data-name="Path 5145" d="M88.529,56.17l-1.3.521c-1.823.521-2.865,2.865-2.344,4.949l.781,3.646c2.344-1.3,4.688-2.344,7.293-3.646L92.436,59.3C91.915,56.952,90.352,55.649,88.529,56.17Z" transform="translate(-35.395 -48.388)" fill="#e4f4ff"/>
            <path id="Path_5146" data-name="Path 5146" d="M97.153,55.6c-2.6,1.3-4.949,2.865-7.553,4.167l.521,2.084c.521,2.084,2.084,3.386,3.907,2.6l1.563-.521c1.823-.521,2.865-2.865,2.344-4.949Z" transform="translate(-27.611 -49.12)" fill="#dde5ed"/>
            <path id="Path_5147" data-name="Path 5147" d="M97.1,55.946c-.521-2.084-2.084-3.386-3.907-2.6l-1.563.521c-1.823.521-2.865,2.865-2.344,4.949l1.042,5.209c2.344-1.3,4.949-2.6,7.553-4.167Z" transform="translate(-28.335 -53.112)" fill="#e4f4ff"/>
          </g>
        </g>
        <g id="Group_608" data-name="Group 608" transform="translate(36.748 87.775)">
          <path id="Path_5148" data-name="Path 5148" d="M84.8,74.6l.781,2.6L63.7,100.125a6.181,6.181,0,0,1-5.209,2.084,5.025,5.025,0,0,1-2.6-.781l-3.646-1.3L51.2,98.041Z" transform="translate(-51.2 -74.34)" fill="#ea5f21"/>
          <path id="Path_5149" data-name="Path 5149" d="M84.8,74.76l-21.618,23.7a5.261,5.261,0,0,1-4.688,2.084c-.781,0-1.823-.26-2.344-.26L51.2,98.462,69.172,74.5Z" transform="translate(-51.2 -74.5)" fill="#4db5ea"/>
        </g>
      </g>
      <path id="Path_5150" data-name="Path 5150" d="M188.947,69.531a80,80,0,0,1,8.074-4.428c-5.991-5.991-24.223-14.586-43.5-15.888-19.274-2.084-39.59,3.126-47.925,7.293.26.521,9.637-8.6,28.13-13.283A88.25,88.25,0,0,1,205.1,55.467c.521-3.126,1.042-6.512,1.3-9.637a91.312,91.312,0,0,1,15.628,41.413C211.607,77.085,199.887,71.355,188.947,69.531Z" transform="translate(116.501 -40.425)" fill="#f7dc54"/>
    </g>
  </g>
</svg>
