<svg xmlns="http://www.w3.org/2000/svg" width="32.94" height="32.94" viewBox="0 0 32.94 32.94"><defs><style>.a{fill:#2f55d4;}.b{fill:#b8c0d9;}</style></defs><path class="a" d="M50.168,34.335A14.9,14.9,0,0,0,35.885,53.49l2.822-2.822a.784.784,0,0,1,1.108,1.108l-3.282,3.282a.8.8,0,0,1-.059.054,14.945,14.945,0,0,0,2.65,4.119l2.884-2.884a.784.784,0,1,1,1.108,1.108l-2.88,2.88a14.938,14.938,0,0,0,4.137,2.63c.011-.012.021-.024.033-.036l2.99-2.99A.784.784,0,1,1,48.5,61.049l-2.5,2.5a14.9,14.9,0,1,0,4.163-29.212Zm.784,22.5v1.1a.784.784,0,1,1-1.567,0v-1.1a5.037,5.037,0,0,1-4.245-4.968.784.784,0,1,1,1.567,0,3.462,3.462,0,1,0,3.462-3.462,3.417,3.417,0,0,1-.784-6.742V40.54a.784.784,0,0,1,1.567,0v1.127a3.422,3.422,0,0,1,2.633,3.325.784.784,0,1,1-1.567,0,1.852,1.852,0,0,0-1.755-1.847.784.784,0,0,1-.094.006.8.8,0,0,1-.094-.006,1.85,1.85,0,0,0,.094,3.7,5.029,5.029,0,0,1,.784,10Z" transform="translate(-32.991 -32.12)"/><path class="b" d="M16.47,32.94A16.47,16.47,0,0,1,4.824,4.824,16.47,16.47,0,1,1,28.116,28.116,16.362,16.362,0,0,1,16.47,32.94Zm-4.164-2.159A14.9,14.9,0,1,0,2.186,20.724L5.009,17.9a.784.784,0,0,1,1.108,1.108L2.835,22.291a.789.789,0,0,1-.06.054,14.951,14.951,0,0,0,2.65,4.119l2.884-2.884a.784.784,0,0,1,1.108,1.108L6.537,27.57A14.933,14.933,0,0,0,10.673,30.2l.033-.036,2.99-2.99a.784.784,0,1,1,1.108,1.108Zm4.164-4.821a.784.784,0,0,1-.784-.784v-1.1A5.037,5.037,0,0,1,11.441,19.1a.784.784,0,1,1,1.567,0,3.462,3.462,0,1,0,3.462-3.462A3.417,3.417,0,0,1,15.686,8.9V7.773a.784.784,0,1,1,1.567,0V8.9a3.423,3.423,0,0,1,2.633,3.326.784.784,0,1,1-1.567,0,1.852,1.852,0,0,0-1.752-1.847.8.8,0,0,1-.2,0,1.85,1.85,0,0,0,.1,3.7,5.029,5.029,0,0,1,.784,10v1.1A.784.784,0,0,1,16.47,25.959Z" transform="translate(0 0)"/></svg>