<svg xmlns="http://www.w3.org/2000/svg" width="47.451" height="47.45" viewBox="0 0 47.451 47.45"><g transform="translate(-20.557 -20.558)"><path d="M62.812,30.85c.979-3.786.549-6.73-1.251-8.53a7.022,7.022,0,0,0-5.721-1.731,21.581,21.581,0,0,0-7.482,2.217,23.047,23.047,0,0,0-3.054-.2A22.7,22.7,0,0,0,22.6,45.3a23.026,23.026,0,0,0,.2,3.049,21.655,21.655,0,0,0-2.216,7.488,7.021,7.021,0,0,0,1.731,5.721,6.651,6.651,0,0,0,4.887,1.764,14.7,14.7,0,0,0,3.643-.513A22.7,22.7,0,0,0,62.812,30.85Zm-6.853-8.584a5.444,5.444,0,0,1,4.412,1.243c.862.862,1.676,2.554,1.061,5.819l-.076-.078a22.571,22.571,0,0,0-10.083-5.859,17.192,17.192,0,0,1,4.686-1.125Zm-14.2,2.317-.641,2.881a.841.841,0,0,0,.555.98l4.646,1.549.708,2.123a.841.841,0,0,0,.331.434l2.03,1.353-.622,2.488L43.6,40.078l-2.02-1.347L38.24,36.223a.841.841,0,0,0-1.1.078l-2.523,2.523a.841.841,0,0,0-.246.595v3.856l-1.314,1.314-4.044,1.618a.841.841,0,0,0-.387.314l-1.682,2.523a.84.84,0,0,0-.141.466v3.784l-.715.536A21.017,21.017,0,0,1,41.759,24.583ZM23.508,60.372a5.442,5.442,0,0,1-1.243-4.412,17.187,17.187,0,0,1,1.125-4.686A22.571,22.571,0,0,0,29.25,61.357l.078.076c-3.265.615-4.957-.2-5.819-1.061Zm10.643-2.2L32.86,56.235l1.324-1.986,1.526-1.526,2.8-1.4,2.117,1.411a.84.84,0,0,0,.467.141h1.333L43.556,54A47.724,47.724,0,0,1,35.528,59.2Zm10.6-2.98.8.8a.841.841,0,0,0,.8.221l2.608-.652.505,1.518-.619,1.858-2.123.708a.841.841,0,0,0-.575.8v2.073L44,63.944a.841.841,0,0,0-.349.5L43.2,66.22a20.9,20.9,0,0,1-3.15-.559l-.642-4.5a.841.841,0,0,0-.833-.722h-1.4l-.154-.116a51.01,51.01,0,0,0,7.732-5.132ZM36.39,61.953a.841.841,0,0,0,.5.168h.952l.427,2.994A21,21,0,0,1,32.817,62.2q1.23-.44,2.52-1.041Zm8.519,4.367.29-1.157,2.252-1.5a.841.841,0,0,0,.374-.7V61.045l1.948-.649a.841.841,0,0,0,.532-.532l.841-2.523a.84.84,0,0,0,0-.532L50.3,54.287a.841.841,0,0,0-1-.55l-2.9.725-.341-.341q1.177-.989,2.336-2.06l-1.143-1.234q-1.182,1.095-2.387,2.1l-1.493-1.493a.841.841,0,0,0-.594-.246H41.353l-2.311-1.54A.841.841,0,0,0,38.2,49.6l-3.363,1.682a.839.839,0,0,0-.219.158l-1.682,1.682a.846.846,0,0,0-.105.128L31.15,55.769a.841.841,0,0,0,0,.933l1.682,2.523a.842.842,0,0,0,.2.206l.774.58a24.945,24.945,0,0,1-2.525.935,21.158,21.158,0,0,1-4.427-5.584l1.3-.976a.841.841,0,0,0,.336-.673v-3.95l1.4-2.093,3.962-1.585a.842.842,0,0,0,.282-.186l1.682-1.682a.841.841,0,0,0,.246-.595V39.766l1.761-1.761,2.78,2.085.038.027L43.155,41.8a.841.841,0,0,0,.955-.015L50,37.58a.841.841,0,0,0,.327-.48l.841-3.363a.841.841,0,0,0-.349-.9l-2.282-1.522-.75-2.249a.841.841,0,0,0-.532-.532l-4.326-1.441.607-2.73c.584-.049,1.175-.075,1.771-.075a20.973,20.973,0,0,1,15.642,6.993,31.53,31.53,0,0,1-3.185,6.868l1.442.865a35.118,35.118,0,0,0,3-6.192,20.916,20.916,0,0,1,3.874,9.263l-2.715,1.666a.841.841,0,0,0-.376.513l-1.57,6.279-4.607,1.536a.841.841,0,0,0-.575.8v4.7L54.8,59a.841.841,0,0,0-.135,1.012l1.776,3.109a20.9,20.9,0,0,1-11.136,3.2c-.132,0-.263,0-.394-.005Zm12.923-4.147-1.391-2.434,1.228-1.228a.841.841,0,0,0,.246-.595V53.478l4.47-1.49a.841.841,0,0,0,.55-.594L64.534,45l1.744-1.07c.029.454.046.912.046,1.374a21,21,0,0,1-8.491,16.868Z" transform="translate(0)"/><path d="M285.454,209.249v-6.727a.841.841,0,0,0-.61-.808l-5.886-1.682a.84.84,0,0,0-.462,0l-5.886,1.682a.841.841,0,0,0-.61.808v6.727a.841.841,0,0,0,.61.808l5.886,1.682a.841.841,0,0,0,.462,0l5.886-1.682A.841.841,0,0,0,285.454,209.249Zm-6.727-7.534,2.825.807-2.825.807-2.825-.807Zm-5.045,1.922,4.2,1.2v4.978l-4.2-1.2Zm5.886,6.179v-4.978l4.2-1.2v4.978Z" transform="translate(-225.015 -160.581)"/><path d="M248,152h1.682v1.682H248Z" transform="translate(-203.538 -117.627)"/><path d="M144,120h1.682v1.682H144Z" transform="translate(-110.469 -88.99)"/><path d="M104,216h1.682v1.682H104Z" transform="translate(-74.673 -174.9)"/><path d="M176,336h1.682v1.682H176Z" transform="translate(-139.105 -282.287)"/><path d="M224,392h1.682v1.682H224Z" transform="translate(-182.06 -332.402)"/><path d="M392,344h1.682v1.682H392Z" transform="translate(-332.402 -289.447)"/></g></svg>