<svg xmlns="http://www.w3.org/2000/svg" width="48.216" height="48.216" viewBox="0 0 48.216 48.216"><path d="M24.108,0A24.108,24.108,0,1,0,48.216,24.108,24.135,24.135,0,0,0,24.108,0Zm0,44.2A20.09,20.09,0,1,1,44.2,24.108,20.113,20.113,0,0,1,24.108,44.2Z"/><g transform="translate(16.192 10.985)"><path d="M227.657,344.96a2.431,2.431,0,0,0-2.391,2.391c0,.04,0,.082,0,.122a2.392,2.392,0,0,0,2.471,2.308h-.08a2.411,2.411,0,0,0,0-4.822Z" transform="translate(-220.243 -323.459)"/><path d="M179.819,116.65a10.043,10.043,0,0,0-7.534,3.074,1.572,1.572,0,0,0-.342,1,1.667,1.667,0,0,0,1.607,1.647,1.694,1.694,0,0,0,1.125-.422,6.575,6.575,0,0,1,4.761-2.009c2.712,0,4.018,1.467,4.018,3.194,0,3.7-6.57,4.159-6.57,8.96,0,1.165.723,3.315,2.23,3.315h.04a1.467,1.467,0,0,0,1.467-1.467c0-.542-.382-1-.382-1.547,0-3.616,7.072-4.118,7.232-9.724C187.474,119.262,184.581,116.65,179.819,116.65Z" transform="translate(-171.944 -116.646)"/></g></svg>