<svg xmlns="http://www.w3.org/2000/svg" width="48" height="48" viewBox="0 0 48 48"><defs><style>.a{fill:#212c53;}</style></defs><g transform="translate(-0.001 0)"><g transform="translate(23.588 22.539)"><path class="a" d="M253.188,240.693a.938.938,0,1,0,0,1.326A.938.938,0,0,0,253.188,240.693Z" transform="translate(-251.587 -240.418)"/></g><g transform="translate(29.121 9.508)"><path class="a" d="M318.6,102.789a4.688,4.688,0,1,0,0,6.629A4.686,4.686,0,0,0,318.6,102.789Zm-1.326,5.3a2.813,2.813,0,1,1,0-3.978A2.816,2.816,0,0,1,317.277,108.093Z" transform="translate(-310.603 -101.415)"/></g><g transform="translate(9.003 0)"><path class="a" d="M134.742.275a.934.934,0,0,0-.7-.274,41.648,41.648,0,0,0-11.259,2.331,31.388,31.388,0,0,0-11.91,7.223c-.694.694-1.369,1.429-2.015,2.193a6.871,6.871,0,0,0-7.064-.407c-3.57,1.911-5.78,7.1-5.78,10.809a.938.938,0,0,0,1.6.663,5.968,5.968,0,0,1,4.964-1.665l.328.328a32.974,32.974,0,0,0-1.548,4.553,2.654,2.654,0,0,0,.114,1.628,8.878,8.878,0,0,0-2.532,1.785c-2.413,2.413-2.9,8.295-2.923,8.544A.937.937,0,0,0,96.956,39l.074,0c.249-.02,6.131-.51,8.544-2.923a8.878,8.878,0,0,0,1.785-2.531,2.648,2.648,0,0,0,1.629.113,32.978,32.978,0,0,0,4.553-1.548l.328.328A5.968,5.968,0,0,1,112.2,37.4a.937.937,0,0,0,.663,1.6c3.711,0,8.9-2.21,10.809-5.78a6.871,6.871,0,0,0-.407-7.064c.764-.646,1.5-1.321,2.193-2.015a31.391,31.391,0,0,0,7.223-11.91A41.648,41.648,0,0,0,135.016.971.938.938,0,0,0,134.742.275ZM98.114,20.134c.582-2.818,2.274-5.911,4.569-7.139a5,5,0,0,1,4.992.235,37.907,37.907,0,0,0-3.939,6.421.988.988,0,0,0-.5-.291A8.013,8.013,0,0,0,98.114,20.134Zm6.134,14.613c-1.289,1.289-4.313,1.969-6.224,2.247.278-1.911.958-4.935,2.247-6.224a6.756,6.756,0,0,1,2.4-1.577l3.155,3.155A6.755,6.755,0,0,1,104.248,34.747Zm4.274-2.909a.88.88,0,0,1-.819-.266l-1.836-1.836-2.421-2.421a.88.88,0,0,1-.267-.819,30.443,30.443,0,0,1,1.171-3.581l7.753,7.753A30.421,30.421,0,0,1,108.522,31.838Zm13.5.5c-1.228,2.295-4.321,3.987-7.139,4.569a7.979,7.979,0,0,0,.768-5.149.979.979,0,0,0-.285-.474,37.92,37.92,0,0,0,6.421-3.939A5,5,0,0,1,122.022,32.334Zm2.114-9.52a34.028,34.028,0,0,1-2.7,2.426,36.019,36.019,0,0,1-7.474,4.633l-8.814-8.814a36.013,36.013,0,0,1,4.633-7.474,34.023,34.023,0,0,1,2.426-2.7A29.233,29.233,0,0,1,122.859,4.3l7.856,7.856A29.231,29.231,0,0,1,124.136,22.814Zm7.254-12.634-6.553-6.553a42.149,42.149,0,0,1,8.226-1.673A42.156,42.156,0,0,1,131.389,10.18Z" transform="translate(-96.018 0)"/></g><g transform="translate(18.285 38.449)"><path class="a" d="M199.272,410.4a.938.938,0,0,0-1.326,0l-2.651,2.652a.938.938,0,0,0,1.326,1.326l2.651-2.652A.938.938,0,0,0,199.272,410.4Z" transform="translate(-195.021 -410.121)"/></g><g transform="translate(5.026 25.191)"><path class="a" d="M57.844,268.976a.938.938,0,0,0-1.326,0l-2.652,2.651a.937.937,0,1,0,1.326,1.326l2.652-2.651A.938.938,0,0,0,57.844,268.976Z" transform="translate(-53.592 -268.701)"/></g><g transform="translate(7.956 39.776)"><path class="a" d="M92.8,424.546a.938.938,0,0,0-1.326,0l-6.351,6.35a.937.937,0,1,0,1.326,1.326l6.351-6.35A.937.937,0,0,0,92.8,424.546Z" transform="translate(-84.851 -424.271)"/></g><g transform="translate(0.456 39.776)"><path class="a" d="M12.8,424.546a.938.938,0,0,0-1.326,0L5.126,430.9a.937.937,0,1,0,1.326,1.326l6.351-6.35A.937.937,0,0,0,12.8,424.546Z" transform="translate(-4.851 -424.271)"/></g><g transform="translate(0.001 31.82)"><path class="a" d="M7.951,339.685a.938.938,0,0,0-1.326,0l-6.35,6.351A.938.938,0,0,0,1.6,347.361l6.35-6.351A.938.938,0,0,0,7.951,339.685Z" transform="translate(-0.001 -339.41)"/></g><g transform="translate(26.239 18.562)"><path class="a" d="M282.8,198.265a.938.938,0,0,0-1.326,0l-1.326,1.326a.938.938,0,0,0,1.326,1.326l1.326-1.326A.938.938,0,0,0,282.8,198.265Z" transform="translate(-279.871 -197.99)"/></g></g></svg>