<svg xmlns="http://www.w3.org/2000/svg" width="18" height="29.05" viewBox="0 0 18 29.05"><defs><style>.a{fill:#2f55d4;}</style></defs><path class="a" d="M98.892,1.577A.638.638,0,0,1,98.4,1.8a.677.677,0,0,1-.5-.223L96.463,0,95.021,1.57l-.041.041a.675.675,0,0,1-.954-.041L92.585,0,91.144,1.57l-.041.041a.675.675,0,0,1-.954-.041L88.708,0,87.267,1.57l-.041.041a.675.675,0,0,1-.954-.041L84.83,0,83.389,1.577a.677.677,0,0,1-.5.223.638.638,0,0,1-.487-.223L81.65.744V28.313l.751-.839a.638.638,0,0,1,.487-.223.677.677,0,0,1,.5.223L84.83,29.05l1.448-1.57.041-.041a.675.675,0,0,1,.954.041l1.441,1.57,1.441-1.57.041-.041a.675.675,0,0,1,.954.041l1.441,1.57,1.441-1.57.041-.041a.675.675,0,0,1,.954.041l1.441,1.57,1.441-1.577a.677.677,0,0,1,.5-.223.638.638,0,0,1,.487.223l.751.832V.738ZM89.967,5.434V5.008a.677.677,0,1,1,1.353,0v.426a2.2,2.2,0,0,1,1.529,2.1.677.677,0,1,1-1.353,0V7.525a.849.849,0,1,0-.846.853,2.205,2.205,0,0,1,.677,4.3v.433a.677.677,0,1,1-1.353,0v-.433a2.208,2.208,0,0,1-1.529-2.1.677.677,0,1,1,1.353,0,.853.853,0,0,0,.853.853c.007,0,.007,0,.007.007a.853.853,0,1,0-.014-1.705,2.205,2.205,0,0,1-.677-4.3Zm-2.28,12.072h5.928a.677.677,0,0,1,0,1.353H87.686a.677.677,0,0,1,0-1.353Zm8.75,6.97H84.864a.677.677,0,0,1,0-1.353H96.436a.677.677,0,0,1,0,1.353Zm0-2.842H84.864a.677.677,0,0,1,0-1.353H96.436a.677.677,0,0,1,0,1.353Z" transform="translate(-81.65)"/><g transform="translate(18 28.306)"><path class="a" d="M347.65,418.3Z" transform="translate(-347.65 -418.3)"/></g></svg>